<?xml version="1.0" encoding="UTF-8" standalone="no"?>
<!-- Created with Inkscape (http://www.inkscape.org/) -->

<svg
   width="175.78996mm"
   height="41.148029mm"
   viewBox="0 0 175.78996 41.148029"
   version="1.1"
   id="svg5"
   inkscape:version="1.1.2 (0a00cf5339, 2022-02-04)"
   sodipodi:docname="btnwitharrow.svg"
   xmlns:inkscape="http://www.inkscape.org/namespaces/inkscape"
   xmlns:sodipodi="http://sodipodi.sourceforge.net/DTD/sodipodi-0.dtd"
   xmlns="http://www.w3.org/2000/svg"
   xmlns:svg="http://www.w3.org/2000/svg">
  <sodipodi:namedview
     id="namedview7"
     pagecolor="#505050"
     bordercolor="#eeeeee"
     borderopacity="1"
     inkscape:pageshadow="0"
     inkscape:pageopacity="0"
     inkscape:pagecheckerboard="0"
     inkscape:document-units="mm"
     showgrid="false"
     inkscape:zoom="0.41335578"
     inkscape:cx="299.98371"
     inkscape:cy="53.222916"
     inkscape:window-width="1314"
     inkscape:window-height="679"
     inkscape:window-x="26"
     inkscape:window-y="23"
     inkscape:window-maximized="0"
     inkscape:current-layer="layer1" />
  <defs
     id="defs2" />
  <g
     inkscape:label="Layer 1"
     inkscape:groupmode="layer"
     id="layer1"
     transform="translate(-25.358748,-134.36436)">
    <g
       id="g1058"
       transform="translate(5.0681826,71.087074)">
      <path
         style="fill:#f9f9f9;stroke-width:0.169333"
         d="m 29.43186,95.424514 c -5.027712,-4.950428 -9.141295,-9.073886 -9.141295,-9.16324 0,-0.230515 3.235834,2.874337 11.514667,11.048567 3.958167,3.908159 7.1002,7.107929 6.982295,7.110599 -0.117905,0.003 -4.327955,-4.0455 -9.355667,-8.995926 z m 155.28138,1.715874 c 8.27817,-8.175986 11.34534,-11.117046 11.34534,-10.878875 0,0.244805 -18.25658,18.164537 -18.50021,18.158867 -0.11612,-0.003 3.10357,-3.2787 7.15487,-7.279992 z M 20.290565,81.946955 c 0,-0.243003 18.772145,-18.670562 19.013478,-18.664461 0.113221,0.0029 -3.223144,3.393247 -7.414144,7.53419 -8.523634,8.421827 -11.599334,11.373149 -11.599334,11.130271 z M 186.42632,72.740214 c -5.22943,-5.139414 -9.47042,-9.38203 -9.42441,-9.428036 0.13253,-0.132533 2.65258,2.279371 11.18266,10.702797 4.37727,4.322532 7.91168,7.906506 7.85424,7.964389 -0.0574,0.05788 -4.38305,-4.099735 -9.61249,-9.23915 z m -152.843088,2.89841 2.196447,-2.201333 h 0.846667 0.846666 l -2.196446,2.201333 -2.196447,2.201334 h -0.846667 -0.846667 z m 5.757334,0.846667 c 0.740696,-0.745067 1.36756,-1.354667 1.393028,-1.354667 0.02547,0 0.04631,0.6096 0.04631,1.354667 v 1.354667 h -1.393027 -1.393028 z m 1.608667,-0.12059 v -1.475258 l 0.71259,-0.726076 c 0.620002,-0.631737 0.807016,-0.726076 1.439334,-0.726076 H 43.8279 v -0.752007 c 0,-0.413603 0.0762,-0.7991 0.169333,-0.85666 0.104365,-0.0645 0.169333,0.224019 0.169333,0.752006 v 0.856661 H 108.0899 172.01324 V 72.58063 c 0,-0.527987 0.065,-0.816507 0.16933,-0.752006 0.0931,0.05756 0.16934,0.443057 0.16934,0.85666 v 0.752007 h 0.72603 c 0.6428,0 0.81752,0.09288 1.524,0.81015 l 0.79797,0.810149 v 1.391184 1.391184 h -1.524 -1.524 l -0.0246,-0.973667 -0.0246,-0.973667 -0.17216,0.973667 -0.17215,0.973667 H 108.0899 44.221381 l -0.172156,-0.973667 -0.172156,-0.973667 -0.02459,0.973667 -0.02458,0.973667 h -1.439334 -1.439333 z m 134.620007,0.167161 v -1.308095 l 1.27,1.261524 c 0.6985,0.693838 1.27,1.282481 1.27,1.308095 0,0.02562 -0.5715,0.04657 -1.27,0.04657 h -1.27 z m 5.334,-0.893238 -2.19645,-2.201333 h 0.84667 0.84667 l 2.19644,2.201333 2.19645,2.201334 h -0.84667 -0.84666 z M 40.067309,70.848548 c 0.620888,-0.632638 0.71259,-0.822684 0.71259,-1.476775 v -0.750699 l -1.143,1.095775 -1.143,1.095775 1.095775,-1.143 c 0.602676,-0.62865 1.155126,-1.143 1.227667,-1.143 0.07254,0 0.131892,0.321943 0.131892,0.715428 v 0.715429 l 1.312333,-1.265008 c 0.721784,-0.695755 0.399124,-0.331898 -0.71702,0.808571 -1.116144,1.140469 -2.065458,2.07358 -2.10959,2.07358 -0.04413,0 0.24043,-0.326734 0.632353,-0.726076 z M 174.63526,69.500909 c -1.11614,-1.140543 -1.4007,-1.466181 -0.63235,-0.723639 l 1.397,1.350075 v -0.715694 c 0,-0.393632 0.0595,-0.715694 0.1323,-0.715694 0.0728,0 0.58711,0.47625 1.143,1.058333 l 1.0107,1.058334 -1.05834,-1.0107 -1.05833,-1.010699 v 0.74956 c 0,0.635967 0.095,0.846873 0.62703,1.391699 0.34487,0.353177 0.59133,0.64214 0.54769,0.64214 -0.0436,0 -0.99256,-0.933172 -2.1087,-2.073715 z m -0.59002,-2.244285 c -0.69384,-0.6985 -1.22342,-1.27 -1.17686,-1.27 0.0466,0 0.65236,0.5715 1.34619,1.27 0.69384,0.6985 1.22343,1.27 1.17686,1.27 -0.0466,0 -0.65235,-0.5715 -1.34619,-1.27 z M 42.0499,67.171957 c 0.646938,-0.651933 1.21435,-1.185333 1.260917,-1.185333 0.04657,0 -0.444646,0.5334 -1.091584,1.185333 -0.646938,0.651933 -1.21435,1.185333 -1.260917,1.185333 -0.04657,0 0.444646,-0.5334 1.091584,-1.185333 z m 2.669328,-1.984177 c 0.257397,-0.03892 0.638397,-0.03788 0.846667,0.0023 0.20827,0.04019 -0.0023,0.07204 -0.467995,0.07077 -0.465667,-0.0013 -0.636069,-0.03416 -0.378672,-0.07308 z m 7.787005,-0.0049 c 1.094317,-0.0295 2.885017,-0.0295 3.979334,0 1.094317,0.0295 0.198967,0.05363 -1.989667,0.05363 -2.188633,0 -3.083983,-0.02413 -1.989667,-0.05363 z m 107.188007,0 c 1.09432,-0.0295 2.88502,-0.0295 3.97933,0 1.09432,0.0295 0.19897,0.05363 -1.98966,0.05363 -2.18864,0 -3.08399,-0.02413 -1.98967,-0.05363 z m 11.009,0.0049 c 0.25739,-0.03892 0.63839,-0.03788 0.84666,0.0023 0.20827,0.04019 -0.002,0.07204 -0.46799,0.07077 -0.46567,-0.0013 -0.63607,-0.03416 -0.37867,-0.07308 z"
         id="path1126" />
      <path
         style="fill:#f5f5f5;stroke-width:0.169333"
         d="m 29.688566,95.257349 c -5.122334,-5.036243 -9.340736,-9.243788 -9.374226,-9.350098 -0.03349,-0.106311 2.023909,1.864751 4.572,4.380137 10.659059,10.522252 14.293527,14.137592 14.207079,14.132342 -0.05034,-0.003 -4.28252,-4.12614 -9.404853,-9.162381 z M 182.07846,99.561718 C 193.229,88.525529 196.09271,85.723402 196.0348,85.905496 c -0.0625,0.196627 -18.53411,18.398544 -18.75464,18.480834 -0.0674,0.0251 2.09187,-2.14594 4.7983,-4.824612 z M 20.313299,82.305817 c 0.06686,-0.205971 19.052464,-18.910312 19.280532,-18.994895 0.127615,-0.04733 -2.113407,2.179004 -14.623865,14.528001 -2.59523,2.561736 -4.690731,4.571838 -4.656667,4.466894 z M 186.31312,72.868908 c -5.31344,-5.228823 -9.63578,-9.54071 -9.6052,-9.58197 0.0306,-0.04126 1.67282,1.523801 3.64945,3.477914 1.97663,1.954112 6.32621,6.240534 9.66572,9.52538 3.33953,3.284847 6.04463,5.997915 6.01134,6.029038 -0.0333,0.03112 -4.40788,-4.221539 -9.72131,-9.450362 z m -149.900858,6.40566 1.474362,-1.43461 h 1.446637 1.446638 v -1.380912 -1.380911 l -0.381,0.322578 -0.381,0.322578 0.322579,-0.381 c 0.177417,-0.20955 0.386967,-0.381 0.465666,-0.381 0.0787,0 0.143089,0.6477 0.143089,1.439333 v 1.439334 h 1.439333 1.439334 l 0.02458,-0.973667 0.02459,-0.973667 0.172156,0.973667 0.172156,0.973667 h 63.868518 63.86853 l 0.17215,-0.973667 0.17216,-0.973667 0.0246,0.973667 0.0246,0.973667 h 1.524 1.524 v -1.354667 c 0,-1.373047 0.11015,-1.59317 0.5296,-1.058333 0.21063,0.268572 0.20464,0.274561 -0.0639,0.06393 -0.27663,-0.216948 -0.29633,-0.146582 -0.29633,1.058334 v 1.290734 h 1.36197 1.36197 l 1.47437,1.43461 1.47436,1.434611 -2.8286,0.0047 -2.8286,0.0047 -0.0592,-1.143 -0.0592,-1.143001 -0.0332,1.143001 -0.0332,1.143 h -1.524 -1.524 l -0.0203,-0.719667 -0.0203,-0.719667 -0.17306,0.719667 -0.17306,0.719667 H 108.0899 44.214684 L 44.041627,79.99891 43.86857,79.279243 43.84824,79.99891 43.8279,80.718577 h -1.431597 -1.431596 l -0.05924,-1.143 -0.05924,-1.143001 -0.03317,1.143001 -0.03317,1.143 -2.921,-0.0047 -2.921,-0.0047 1.474363,-1.434611 z m -5.930736,0.207013 -0.36674,-0.390377 0.640696,-0.625623 c 0.563164,-0.549915 0.741648,-0.625623 1.474922,-0.625623 h 0.834227 l -1.005399,1.016 c -0.552969,0.5588 -1.051651,1.016 -1.108182,1.016 -0.05653,0 -0.267817,-0.17567 -0.469524,-0.390377 z m 153.639044,-0.625623 -1.00539,-1.016 h 0.84933 c 0.76069,0 0.91507,0.06733 1.47926,0.6451 l 0.62992,0.6451 -0.39481,0.3709 c -0.21714,0.203995 -0.43037,0.3709 -0.47385,0.3709 -0.0435,0 -0.53149,-0.4572 -1.08446,-1.016 z m -9.32398,-4.445001 -0.49735,-0.550333 0.55033,0.497348 c 0.30269,0.273541 0.55034,0.521191 0.55034,0.550333 0,0.13082 -0.13972,0.01564 -0.60332,-0.497348 z M 41.2879,74.368624 c 0.218736,-0.232833 0.435801,-0.423333 0.482368,-0.423333 0.04657,0 -0.0943,0.1905 -0.313035,0.423333 -0.218736,0.232833 -0.435802,0.423334 -0.482368,0.423334 -0.04657,0 0.0943,-0.190501 0.313035,-0.423334 z m -2.286001,-2.455333 c 0.16857,-0.186267 0.34459,-0.338667 0.391157,-0.338667 0.04657,0 -0.05325,0.1524 -0.221823,0.338667 -0.16857,0.186266 -0.34459,0.338666 -0.391157,0.338666 -0.04657,0 0.05325,-0.1524 0.221823,-0.338666 z m 137.990591,-0.04233 -0.32258,-0.381 0.381,0.322578 c 0.20955,0.177418 0.381,0.348868 0.381,0.381 0,0.13551 -0.13628,0.03547 -0.43942,-0.322578 z M 47.8919,67.764624 c 0.218736,-0.232834 0.435801,-0.423334 0.482368,-0.423334 0.04657,0 -0.0943,0.1905 -0.313035,0.423334 -0.218736,0.232833 -0.435801,0.423333 -0.482368,0.423333 -0.04657,0 0.0943,-0.1905 0.313035,-0.423333 z m 120.21386,-0.04233 -0.41052,-0.465666 0.46567,0.410517 c 0.43523,0.38369 0.54332,0.520816 0.41051,0.520816 -0.0303,0 -0.23988,-0.20955 -0.46566,-0.465667 z"
         id="path1124" />
      <path
         style="fill:#f1f1f1;stroke-width:0.169333"
         d="m 29.75597,95.091922 c -5.205973,-5.133356 -9.465405,-9.384412 -9.465405,-9.446793 0,-0.06238 1.08585,0.960884 2.413,2.273922 1.32715,1.313038 5.644483,5.564094 9.594073,9.446791 3.949591,3.882698 7.123173,7.059448 7.052406,7.059448 -0.07077,0 -4.388102,-4.20001 -9.594074,-9.333368 z m 154.37836,2.189309 c 3.99717,-3.929233 8.31533,-8.180392 9.59591,-9.447018 1.28058,-1.266627 2.32834,-2.252182 2.32834,-2.190125 0,0.157365 -18.90231,18.781202 -19.06203,18.781202 -0.0714,0 3.14061,-3.21482 7.13778,-7.144059 z M 32.821232,82.957399 c 0,-0.07254 0.478301,-0.60594 1.06289,-1.185333 l 1.062889,-1.053441 h 2.908708 2.908707 l 0.05924,-1.143 0.05924,-1.143001 0.03316,1.143001 0.03317,1.143 h 1.439333 1.439334 l 0.02034,-0.719667 0.02033,-0.719667 0.173057,0.719667 0.173057,0.719667 h 63.875213 63.87522 l 0.17306,-0.719667 0.17306,-0.719667 0.0203,0.719667 0.0203,0.719667 h 1.51626 1.51626 l 0.0592,-1.143 0.0592,-1.143001 0.0332,1.143001 0.0332,1.143 h 2.84123 2.84122 l 1.05344,1.06289 c 0.5794,0.584588 1.05344,1.117988 1.05344,1.185333 0,0.06734 -1.74879,0.122443 -3.88621,0.122443 h -3.88622 l -0.0611,-0.973666 -0.0611,-0.973667 -0.032,0.973667 -0.032,0.973666 h -1.524 -1.524 l -0.0214,-0.635 -0.0214,-0.635 -0.1778,0.635 -0.1778,0.635 H 108.0899 44.226295 l -0.1778,-0.635 -0.177798,-0.635 -0.0214,0.635 -0.0214,0.635 h -1.430884 -1.430882 l -0.0611,-0.973666 -0.0611,-0.973667 -0.03202,0.973667 -0.03202,0.973666 h -3.979333 c -2.188634,0 -3.979334,-0.05935 -3.979334,-0.131892 z M 20.290565,82.565891 c 0,-0.177934 19.429122,-19.288601 19.610022,-19.288601 0.08683,0 -0.840876,0.97155 -2.061564,2.159 -1.22069,1.18745 -5.668465,5.553689 -9.883946,9.702753 -4.215482,4.149065 -7.664512,7.491147 -7.664512,7.426848 z m 170.180005,-5.34949 c -3.02683,-3.010153 -7.45901,-7.377879 -9.84929,-9.706058 -2.39029,-2.328179 -4.27175,-4.233053 -4.18104,-4.233053 0.20733,0 19.61834,19.119147 19.61834,19.323365 0,0.193473 0.66309,0.832383 -5.58801,-5.384254 z M 37.562566,78.132053 c 0,-0.02561 0.59055,-0.616164 1.312333,-1.312333 l 1.312334,-1.265762 -1.265762,1.312333 c -1.175612,1.218866 -1.358905,1.389596 -1.358905,1.265762 z M 177.26257,76.908624 c -0.69383,-0.6985 -1.22342,-1.27 -1.17685,-1.27 0.0466,0 0.65235,0.5715 1.34619,1.27 0.69384,0.6985 1.22342,1.27 1.17685,1.27 -0.0466,0 -0.65235,-0.5715 -1.34619,-1.27 z M 42.134566,73.521957 c 0.218737,-0.232833 0.435802,-0.423333 0.482368,-0.423333 0.04657,0 -0.0943,0.1905 -0.313034,0.423333 -0.218737,0.232834 -0.435802,0.423334 -0.482368,0.423334 -0.04657,0 0.0943,-0.1905 0.313034,-0.423334 z m 131.728524,-0.04233 -0.41052,-0.465667 0.46567,0.410518 c 0.43524,0.38369 0.54332,0.520816 0.41052,0.520816 -0.0303,0 -0.23988,-0.20955 -0.46567,-0.465667 z M 49.246567,66.409957 c 0.218736,-0.232833 0.435801,-0.423333 0.482368,-0.423333 0.04657,0 -0.0943,0.1905 -0.313035,0.423333 -0.218736,0.232833 -0.435801,0.423333 -0.482368,0.423333 -0.04657,0 0.0943,-0.1905 0.313035,-0.423333 z m 117.504523,-0.04233 -0.41052,-0.465667 0.46567,0.410517 c 0.43524,0.38369 0.54332,0.520816 0.41052,0.520816 -0.0303,0 -0.23988,-0.20955 -0.46567,-0.465666 z"
         id="path1122" />
      <path
         style="fill:#ededed;stroke-width:0.169333"
         d="m 37.897888,102.77429 -1.605322,-1.651 1.651,1.60533 c 0.90805,0.88292 1.651,1.62587 1.651,1.651 0,0.1227 -0.20567,-0.0719 -1.696678,-1.60533 z m 140.465352,-0.0423 c 0.92784,-0.93133 1.72508,-1.69333 1.77165,-1.69333 0.0466,0 -0.67448,0.762 -1.60232,1.69333 -0.92783,0.93133 -1.72508,1.69333 -1.77164,1.69333 -0.0466,0 0.67447,-0.762 1.60231,-1.69333 z m -147.744382,-7.069668 -5.163626,-5.207 5.207,5.163626 c 4.839067,4.798762 5.283223,5.250372 5.163626,5.250372 -0.02386,0 -2.367006,-2.343147 -5.207,-5.206998 z m 155.110382,-0.127 c 2.83942,-2.840567 5.20069,-5.164667 5.24725,-5.164667 0.0466,0 -2.23849,2.3241 -5.07792,5.164667 -2.83942,2.840567 -5.20068,5.164668 -5.24725,5.164668 -0.0466,0 2.2385,-2.324101 5.07792,-5.164668 z M 22.61109,87.859391 c -1.276289,-1.288044 -2.320525,-2.405644 -2.320525,-2.483554 0,-0.07791 0.01905,-0.109906 0.04233,-0.0711 0.02328,0.03881 1.10562,1.156407 2.405192,2.483557 1.299572,1.32715 2.324758,2.413 2.278191,2.413 -0.04657,0 -1.128903,-1.053855 -2.405191,-2.341901 z m 171.07939,-0.113433 c 1.25569,-1.303866 2.31254,-2.408766 2.34852,-2.455333 0.036,-0.04657 -0.0161,0.06773 -0.11565,0.254 -0.0996,0.186267 -1.15645,1.291167 -2.34852,2.455333 l -2.16742,2.116667 z M 33.921899,84.105292 32.916501,83.089291 h 3.923249 3.923248 l 0.0611,-0.973666 0.0611,-0.973667 0.03202,0.973667 0.03202,0.973666 h 1.439333 1.439334 l 0.0214,-0.635 0.0214,-0.635 0.177798,0.635 0.1778,0.635 h 63.863607 63.86361 l 0.1778,-0.635 0.1778,-0.635 0.0214,0.635 0.0214,0.635 h 1.51555 1.51555 l 0.0611,-0.973666 0.0611,-0.973667 0.032,0.973667 0.032,0.973666 h 3.84703 3.84704 l -1.0054,1.016001 -1.0054,1.016 h -2.83279 -2.83278 l -0.0622,-0.889 -0.0622,-0.889001 -0.0313,0.889001 -0.0313,0.889 h -1.51327 -1.51328 l -0.0657,-0.550334 -0.0657,-0.550333 -0.13555,0.550333 -0.13554,0.550334 H 108.0899 44.2089 l -0.135547,-0.550334 -0.135548,-0.550333 -0.06568,0.550333 -0.06568,0.550334 H 42.38669 40.966935 l -0.06219,-0.889 -0.06219,-0.889001 -0.03132,0.889001 -0.03132,0.889 h -2.9263 -2.926301 z M 20.425833,82.665958 c 0.09963,-0.186267 1.194602,-1.329267 2.433274,-2.54 l 2.252132,-2.201334 -2.368004,2.455334 c -1.302402,1.350433 -2.397375,2.493433 -2.433274,2.54 -0.0359,0.04657 0.01624,-0.06773 0.115872,-0.254 z m 173.266817,-2.179542 -2.28124,-2.392458 2.16542,2.116667 c 1.75695,1.717404 2.76346,2.824106 2.44537,2.688791 -0.0266,-0.01129 -1.07486,-1.097149 -2.32955,-2.413 z M 30.789232,78.294972 c 0,-0.02914 0.24765,-0.276792 0.550334,-0.550334 l 0.550333,-0.497347 -0.497347,0.550333 c -0.463598,0.512988 -0.60332,0.628168 -0.60332,0.497348 z m 153.998018,-0.497348 -0.49734,-0.550333 0.55033,0.497347 c 0.30268,0.273542 0.55033,0.521192 0.55033,0.550334 0,0.13082 -0.13972,0.01564 -0.60332,-0.497348 z m -151.627351,-0.0216 c 0,-0.03516 0.13335,-0.168513 0.296333,-0.296333 0.268573,-0.210629 0.274562,-0.20464 0.06393,0.06393 -0.221212,0.282067 -0.360266,0.371768 -0.360266,0.232401 z m 149.499741,-0.2324 c -0.21063,-0.268572 -0.20464,-0.274561 0.0639,-0.06393 0.28207,0.221212 0.37177,0.360266 0.2324,0.360266 -0.0352,0 -0.16851,-0.13335 -0.29633,-0.296334 z m 3.06856,-4.910667 -5.16363,-5.207 5.207,5.163626 c 2.86385,2.839994 5.207,5.183144 5.207,5.207 0,0.119597 -0.45161,-0.324559 -5.25037,-5.163626 z m -155.108301,-0.127 c 2.839422,-2.840567 5.200685,-5.164667 5.247251,-5.164667 0.04657,0 -2.238496,2.3241 -5.077918,5.164667 -2.839421,2.840567 -5.200685,5.164667 -5.247251,5.164667 -0.04657,0 2.238496,-2.3241 5.077918,-5.164667 z m 1.947333,3.979334 c 0.168569,-0.186267 0.344589,-0.338667 0.391156,-0.338667 0.04657,0 -0.05325,0.1524 -0.221822,0.338667 -0.168569,0.186267 -0.344589,0.338667 -0.391156,0.338667 -0.04657,0 0.05325,-0.1524 0.221822,-0.338667 z m 150.859918,-0.04233 -0.32258,-0.381 0.381,0.322578 c 0.20955,0.177417 0.381,0.348867 0.381,0.381 0,0.135509 -0.13627,0.03547 -0.43942,-0.322578 z m -150.267251,-0.5296 c 0,-0.03516 0.13335,-0.168513 0.296333,-0.296333 0.268573,-0.210629 0.274562,-0.20464 0.06393,0.06393 -0.221212,0.282066 -0.360266,0.371767 -0.360266,0.2324 z m 149.499741,-0.2324 c -0.21063,-0.268573 -0.20464,-0.274562 0.0639,-0.06393 0.28207,0.221212 0.37177,0.360266 0.2324,0.360266 -0.0352,0 -0.16851,-0.13335 -0.29633,-0.296333 z M 37.985899,72.929291 c 0.16857,-0.186267 0.34459,-0.338667 0.391157,-0.338667 0.04657,0 -0.05325,0.1524 -0.221823,0.338667 -0.16857,0.186266 -0.34459,0.338666 -0.391157,0.338666 -0.04657,0 0.05325,-0.1524 0.221823,-0.338666 z m 140.022591,-0.04233 -0.32258,-0.381 0.381,0.322578 c 0.20955,0.177418 0.381,0.348868 0.381,0.381 0,0.13551 -0.13628,0.03547 -0.43942,-0.322578 z m -134.857924,-0.381 c 0.315939,-0.325966 0.612535,-0.592666 0.659102,-0.592666 0.04657,0 -0.17383,0.2667 -0.489768,0.592666 -0.315939,0.325967 -0.612535,0.592667 -0.659102,0.592667 -0.04657,0 0.17383,-0.2667 0.489768,-0.592667 z m 129.700224,-0.04233 -0.58355,-0.635 0.635,0.583551 c 0.59104,0.543156 0.71286,0.686449 0.58355,0.686449 -0.0283,0 -0.31405,-0.28575 -0.635,-0.635 z M 44.505233,71.151291 c 0.218736,-0.232834 0.435801,-0.423334 0.482368,-0.423334 0.04657,0 -0.0943,0.1905 -0.313035,0.423334 -0.218736,0.232833 -0.435801,0.423333 -0.482368,0.423333 -0.04657,0 0.0943,-0.1905 0.313035,-0.423333 z m 126.987187,-0.04233 -0.41051,-0.465666 0.46566,0.410517 c 0.43524,0.38369 0.54332,0.520816 0.41052,0.520816 -0.0303,0 -0.23988,-0.20955 -0.46567,-0.465667 z m 6.59508,-5.883033 c -1.08299,-1.066179 -1.84499,-1.869698 -1.69333,-1.785599 0.29502,0.163604 3.8811,3.734186 3.74404,3.72787 -0.0449,-0.0021 -0.96772,-0.876091 -2.05071,-1.942271 z M 37.985899,65.336935 c 0.931334,-0.959103 1.845734,-1.825205 2.032,-1.924671 0.186267,-0.09947 0.300567,-0.150684 0.254,-0.113818 -0.04657,0.03687 -0.960966,0.902969 -2.032,1.924671 l -1.947333,1.857642 z m 12.022668,0.311022 c 0.168569,-0.186267 0.34459,-0.338667 0.391156,-0.338667 0.04657,0 -0.05325,0.1524 -0.221823,0.338667 -0.16857,0.186267 -0.34459,0.338667 -0.391157,0.338667 -0.04657,0 0.05325,-0.1524 0.221824,-0.338667 z m 115.977253,-0.04233 -0.32258,-0.381001 0.381,0.322578 c 0.20955,0.177418 0.381,0.348868 0.381,0.381 0,0.13551 -0.13628,0.03547 -0.43942,-0.322577 z"
         id="path1120" />
      <path
         style="fill:#e9e9e9;stroke-width:0.169333"
         d="m 39.16058,103.87496 -0.497347,-0.55033 0.550333,0.49734 c 0.512989,0.4636 0.628168,0.60332 0.497347,0.60332 -0.02914,0 -0.276792,-0.24765 -0.550333,-0.55033 z m 137.93266,-0.0423 c 0.31594,-0.32597 0.61254,-0.59267 0.6591,-0.59267 0.0466,0 -0.17383,0.2667 -0.48977,0.59267 -0.31593,0.32596 -0.61253,0.59266 -0.6591,0.59266 -0.0466,0 0.17383,-0.2667 0.48977,-0.59266 z M 32.227243,97.101626 28.164565,92.995292 32.270899,97.05797 c 2.258483,2.234472 4.106334,4.08232 4.106334,4.10633 0,0.12 -0.37482,-0.24694 -4.14999,-4.062674 z m 151.893327,-0.127 c 2.23375,-2.2352 4.09946,-4.064001 4.14602,-4.064001 0.0466,0 -1.74294,1.828801 -3.97668,4.064001 -2.23375,2.2352 -4.09946,4.064004 -4.14602,4.064004 -0.0466,0 1.74294,-1.828804 3.97668,-4.064004 z m -161.122862,-8.932334 -2.453143,-2.497667 2.497667,2.453144 c 1.373717,1.349228 2.497667,2.473178 2.497667,2.497667 0,0.121185 -0.263288,-0.132879 -2.542191,-2.453144 z m 170.266862,-0.04233 c 1.30138,-1.303866 2.40423,-2.370666 2.4508,-2.370666 0.0466,0 -0.98008,1.0668 -2.28146,2.370666 -1.30138,1.303867 -2.40423,2.370667 -2.4508,2.370667 -0.0466,0 0.98009,-1.0668 2.28146,-2.370667 z M 30.789232,86.750692 c 0,-0.03516 0.10419,-0.150402 0.231533,-0.256088 0.176108,-0.146157 0.282411,-0.130853 0.444068,0.06393 0.1805,0.21749 0.145603,0.256088 -0.231533,0.256088 -0.244237,0 -0.444068,-0.02877 -0.444068,-0.06393 z m 4.995334,-0.782734 -0.833936,-0.846666 h 2.905785 2.905786 l 0.06219,-0.889 0.06219,-0.889001 0.03132,0.889001 0.03132,0.889 h 1.428604 1.428605 l 0.06568,-0.550334 0.06568,-0.550333 0.135548,0.550333 0.135547,0.550334 h 63.881005 63.88101 l 0.13553,-0.550334 0.13555,-0.550333 0.0657,0.550333 0.0657,0.550334 h 1.50443 1.50442 l 0.0622,-0.889 0.0622,-0.889001 0.0313,0.889001 0.0313,0.889 h 2.82997 2.82997 l -0.83394,0.846666 -0.83394,0.846667 h -1.98629 -1.9863 l -0.0648,-0.719667 -0.0648,-0.719666 -0.0296,0.719666 -0.0296,0.719667 h -1.524 -1.524 l -0.0134,-0.465667 -0.0134,-0.465666 -0.17008,0.465666 -0.17008,0.465667 H 108.08992 44.194804 l -0.170076,-0.465667 -0.170077,-0.465666 -0.01336,0.465666 -0.01339,0.465667 h -1.429597 -1.429597 l -0.06482,-0.719667 -0.06482,-0.719666 -0.02958,0.719666 -0.02958,0.719667 h -2.080698 -2.0807 z m 148.759344,0.782734 c 0,-0.03516 0.10419,-0.150402 0.23153,-0.256088 0.17611,-0.146157 0.28241,-0.130853 0.44407,0.06393 0.1805,0.21749 0.1456,0.256088 -0.23154,0.256088 -0.24423,0 -0.44406,-0.02877 -0.44406,-0.06393 z M 22.999898,80.125958 c 1.348025,-1.350434 2.489053,-2.455334 2.53562,-2.455334 0.04657,0 -1.018262,1.1049 -2.366286,2.455334 -1.348024,1.350433 -2.489053,2.455333 -2.53562,2.455333 -0.04657,0 1.018262,-1.1049 2.366286,-2.455333 z m 170.262412,0.04233 -2.3684,-2.413 2.413,2.368398 c 2.24157,2.200134 2.48969,2.457602 2.3684,2.457602 -0.0245,0 -1.11039,-1.08585 -2.413,-2.413 z M 32.736566,78.178624 c 0.168569,-0.186266 0.344589,-0.338666 0.391155,-0.338666 0.04657,0 -0.05325,0.1524 -0.221822,0.338666 -0.168569,0.186267 -0.344589,0.338667 -0.391156,0.338667 -0.04657,0 0.05325,-0.1524 0.221823,-0.338667 z m 150.521254,-0.04233 -0.32258,-0.381 0.381,0.322578 c 0.20955,0.177418 0.381,0.348868 0.381,0.381 0,0.13551 -0.13628,0.03547 -0.43942,-0.322578 z M 31.805232,77.268025 c 0,-0.03516 0.13335,-0.168513 0.296334,-0.296333 0.268572,-0.210629 0.274561,-0.20464 0.06393,0.06393 -0.221212,0.282067 -0.360266,0.371768 -0.360266,0.232401 z M 184.01431,77.035624 c -0.21063,-0.268572 -0.20464,-0.274561 0.0639,-0.06393 0.28207,0.221212 0.37177,0.360266 0.2324,0.360266 -0.0352,0 -0.16851,-0.13335 -0.29633,-0.296334 z M 33.667899,75.416305 c 0,-0.02914 0.24765,-0.276792 0.550333,-0.550333 l 0.550334,-0.497348 -0.497348,0.550334 c -0.463597,0.512987 -0.603319,0.628167 -0.603319,0.497347 z m 148.240691,-0.497347 -0.49735,-0.550334 0.55033,0.497348 c 0.30269,0.273541 0.55034,0.521191 0.55034,0.550333 0,0.13082 -0.13972,0.01564 -0.60332,-0.497347 z m 2.21066,-3.725334 -4.06268,-4.106334 4.10634,4.062678 c 3.81573,3.77517 4.18267,4.14999 4.06268,4.14999 -0.024,0 -1.87187,-1.847851 -4.10634,-4.106334 z m -151.890684,-0.127 c 2.233744,-2.2352 4.099454,-4.064 4.14602,-4.064 0.04657,0 -1.742942,1.8288 -3.976687,4.064 -2.233745,2.2352 -4.099454,4.064 -4.146021,4.064 -0.04657,0 1.742943,-1.8288 3.976688,-4.064 z m 4.995333,2.624667 c 0.218737,-0.232834 0.435802,-0.423334 0.482368,-0.423334 0.04657,0 -0.0943,0.1905 -0.313034,0.423334 -0.218736,0.232833 -0.435801,0.423333 -0.482368,0.423333 -0.04657,0 0.0943,-0.1905 0.313034,-0.423333 z m 141.549861,-0.04233 -0.41052,-0.465666 0.46567,0.410517 c 0.43523,0.38369 0.54332,0.520816 0.41051,0.520816 -0.0303,0 -0.23988,-0.20955 -0.46566,-0.465667 z M 45.521233,70.13529 c 0.315939,-0.325966 0.612535,-0.592666 0.659101,-0.592666 0.04657,0 -0.173829,0.2667 -0.489768,0.592666 -0.315938,0.325967 -0.612534,0.592667 -0.659101,0.592667 -0.04657,0 0.173829,-0.2667 0.489768,-0.592667 z m 124.958887,-0.04233 -0.58355,-0.635 0.635,0.583551 c 0.59105,0.543157 0.71286,0.686449 0.58356,0.686449 -0.0283,0 -0.31405,-0.28575 -0.63501,-0.635 z m 6.52049,-5.842 -0.66937,-0.719667 0.71967,0.669366 c 0.66928,0.622503 0.79748,0.769967 0.66936,0.769967 -0.0277,0 -0.35151,-0.32385 -0.71966,-0.719666 z M 39.255899,64.208623 c 0.315939,-0.325966 0.612535,-0.592666 0.659102,-0.592666 0.04657,0 -0.173829,0.2667 -0.489768,0.592666 -0.315939,0.325967 -0.612535,0.592667 -0.659101,0.592667 -0.04657,0 0.173829,-0.2667 0.489767,-0.592667 z"
         id="path1118" />
      <path
         style="fill:#e5e5e5;stroke-width:0.169333"
         d="m 39.493811,104.04429 -0.322578,-0.381 0.381,0.32258 c 0.358045,0.30315 0.458087,0.43942 0.322578,0.43942 -0.03213,0 -0.203583,-0.17145 -0.381,-0.381 z m 137.176099,0.0423 c 0.16857,-0.18627 0.34459,-0.33867 0.39115,-0.33867 0.0466,0 -0.0532,0.1524 -0.22182,0.33867 -0.16857,0.18626 -0.34459,0.33866 -0.39116,0.33866 -0.0466,0 0.0533,-0.1524 0.22183,-0.33866 z m -142.410565,-5.122337 -4.401446,-4.445001 4.445,4.401446 c 4.130603,4.090132 4.521297,4.488552 4.401446,4.488552 -0.02396,0 -2.024205,-2.00025 -4.445,-4.444997 z m 147.829225,-0.127 c 2.42013,-2.421467 4.43833,-4.402667 4.4849,-4.402667 0.0466,0 -1.89544,1.9812 -4.31556,4.402667 -2.42013,2.421467 -4.43833,4.402667 -4.48489,4.402667 -0.0466,0 1.89543,-1.9812 4.31555,-4.402667 z m -157.735416,-9.609668 -3.808589,-3.852333 3.852334,3.808589 c 3.579592,3.538945 3.928706,3.896078 3.808589,3.896078 -0.02406,0 -1.75761,-1.73355 -3.852334,-3.852334 z m 167.556756,-0.04233 c 2.04734,-2.048934 3.76055,-3.725334 3.80712,-3.725334 0.0466,0 -1.59045,1.6764 -3.63779,3.725334 -2.04734,2.048933 -3.76054,3.725333 -3.80711,3.725333 -0.0466,0 1.59044,-1.6764 3.63778,-3.725333 z M 30.795957,87.922231 c -0.47778,-0.492945 -0.533405,-0.627063 -0.35115,-0.846667 0.119108,-0.143516 0.457744,-0.260939 0.752525,-0.260939 0.419077,0 0.717836,0.184648 1.3699,0.846667 l 0.833936,0.846667 h -1.01875 c -0.939682,0 -1.062812,-0.04546 -1.586461,-0.585728 z m 6.756525,-0.253253 -0.921249,-0.838979 2.064596,-0.0077 2.064597,-0.0077 0.06482,-0.719666 0.06482,-0.719667 0.02958,0.719667 0.02958,0.719668 h 1.439333 1.439334 l 0.01336,-0.465667 0.01336,-0.465666 0.170077,0.465666 0.170077,0.465667 H 108.08989 171.985 l 0.17008,-0.465667 0.17008,-0.465666 0.0134,0.465666 0.0134,0.465667 h 1.51426 1.51426 l 0.0648,-0.719667 0.0648,-0.719666 0.0296,0.719666 0.0296,0.719667 1.98967,0.0077 1.98966,0.0077 -0.92125,0.838979 c -0.89817,0.817968 -0.94775,0.838979 -1.97944,0.838979 h -1.0582 l -0.0664,-0.635001 -0.0664,-0.635 -0.0285,0.635 -0.0285,0.635001 h -1.524 -1.524 l -0.018,-0.465667 -0.018,-0.465667 -0.18401,0.465667 -0.18401,0.465667 h -63.858 -63.857957 l -0.184008,-0.465667 -0.184008,-0.465667 -0.01801,0.465667 -0.01801,0.465667 h -1.429111 -1.429113 l -0.06642,-0.635001 -0.06642,-0.635 -0.02847,0.635 -0.02846,0.635001 H 39.62683 c -1.145446,0 -1.159189,-0.0056 -2.074334,-0.838981 z m 146.060088,-0.0077 c 0.65207,-0.662019 0.95083,-0.846667 1.3699,-0.846667 0.29478,0 0.63342,0.117423 0.75253,0.260939 0.18226,0.219604 0.12663,0.353722 -0.35115,0.846667 -0.52365,0.540268 -0.64678,0.585728 -1.58646,0.585728 h -1.01875 z M 20.368269,85.110026 c -0.06139,-0.09933 -0.0753,-0.216916 -0.03091,-0.261304 0.04439,-0.04439 0.125826,0.03688 0.180975,0.1806 0.114501,0.298384 0.01691,0.350868 -0.150062,0.0807 z m 175.447191,-0.03837 c 0.0636,-0.167 0.15828,-0.26098 0.21042,-0.208844 0.0521,0.05214 1e-4,0.188771 -0.11562,0.303637 -0.16724,0.16599 -0.18669,0.146541 -0.0948,-0.09479 z m -3.90699,-6.088697 -3.7239,-3.767667 3.76767,3.72389 c 3.50088,3.460202 3.84405,3.811444 3.7239,3.811444 -0.0241,0 -1.71953,-1.69545 -3.76767,-3.767667 z M 24.523899,78.771291 c 2.000742,-2.002367 3.675813,-3.640667 3.722379,-3.640667 0.04657,0 -1.552304,1.6383 -3.553046,3.640667 -2.000742,2.002367 -3.675813,3.640667 -3.72238,3.640667 -0.04657,0 1.552304,-1.6383 3.553047,-3.640667 z m 10.668,-4.889933 c 0,-0.03516 0.13335,-0.168513 0.296334,-0.296333 0.268572,-0.210629 0.274561,-0.20464 0.06393,0.06393 -0.221212,0.282067 -0.360266,0.371768 -0.360266,0.232401 z M 180.62764,73.648957 c -0.21063,-0.268572 -0.20464,-0.274561 0.0639,-0.06393 0.28207,0.221212 0.37177,0.360266 0.2324,0.360266 -0.0352,0 -0.16851,-0.13335 -0.29633,-0.296334 z m 1.45971,-4.318 -4.40144,-4.445 4.445,4.401446 c 2.44475,2.420795 4.445,4.421045 4.445,4.445 0,0.119851 -0.39843,-0.270843 -4.48856,-4.401446 z M 34.683899,68.780624 c 2.187147,-2.188634 4.014731,-3.979334 4.061298,-3.979334 0.04657,0 -1.704817,1.7907 -3.891965,3.979334 -2.187147,2.188633 -4.014731,3.979333 -4.061297,3.979333 -0.04657,0 1.704817,-1.7907 3.891964,-3.979333 z m 141.800591,-4.868334 -0.32258,-0.381 0.381,0.322578 c 0.35804,0.303144 0.45808,0.439422 0.32258,0.439422 -0.0321,0 -0.20359,-0.17145 -0.381,-0.381 z"
         id="path1116" />
      <path
         style="fill:#e1e1e1;stroke-width:0.169333"
         d="m 39.663144,104.04429 -0.322578,-0.381 0.423333,0.33686 c 0.232834,0.18528 0.455084,0.35673 0.49389,0.381 0.0388,0.0243 -0.0065,0.0441 -0.100757,0.0441 -0.09422,0 -0.31647,-0.17145 -0.493888,-0.381 z m 136.428206,0.33686 c 0.0388,-0.0243 0.26106,-0.19572 0.49389,-0.381 l 0.42333,-0.33686 -0.32257,0.381 c -0.17742,0.20955 -0.39967,0.381 -0.49389,0.381 -0.0942,0 -0.13956,-0.0199 -0.10076,-0.0441 z m -141.324005,-5.078191 -4.401446,-4.445 4.445,4.401446 c 4.130603,4.090125 4.521297,4.488555 4.401446,4.488555 -0.02396,0 -2.024205,-2.00025 -4.445,-4.445001 z m 146.643895,0.04233 c 2.42012,-2.421467 4.43833,-4.402667 4.48489,-4.402667 0.0466,0 -1.89543,1.9812 -4.31556,4.402667 -2.42012,2.421471 -4.43832,4.402671 -4.48489,4.402671 -0.0466,0 1.89544,-1.9812 4.31556,-4.402671 z M 25.154865,89.897987 c -2.582232,-2.588284 -4.694967,-4.772684 -4.694967,-4.854221 0,-0.08154 0.01905,-0.114935 0.04233,-0.07421 0.02328,0.04072 2.174118,2.225121 4.779633,4.854223 2.605515,2.629102 4.699201,4.780184 4.652634,4.780184 -0.04657,0 -2.197402,-2.117688 -4.779634,-4.705972 z m 165.994485,-0.11661 c 2.56037,-2.605853 4.6846,-4.777554 4.7205,-4.826 0.0359,-0.04845 -0.0164,0.06432 -0.11638,0.250581 -0.0999,0.186267 -2.22411,2.357967 -4.72049,4.826001 l -4.53885,4.487333 z M 32.397899,89.523959 31.3925,88.507959 h 1.016 1.016001 l 1.005398,1.016 1.005399,1.016 h -1.016 -1.016 z m 6.773334,-0.2777 c -0.745067,-0.708991 -1.196268,-1.165149 -1.002667,-1.013687 0.244169,0.191025 0.694929,0.275387 1.471446,0.275387 h 1.119444 l 0.06642,-0.635001 0.06642,-0.635 0.02847,0.635 0.02846,0.635001 h 1.439333 1.439334 l 0.01801,-0.465667 0.01801,-0.465667 0.184008,0.465667 0.184008,0.465667 h 63.857961 63.85796 l 0.18401,-0.465667 0.18401,-0.465667 0.018,0.465667 0.018,0.465667 h 1.51377 1.51378 l 0.0664,-0.635001 0.0664,-0.635 0.0285,0.635 0.0285,0.635001 h 1.045 c 0.70778,0 1.15859,-0.08887 1.397,-0.275387 0.1936,-0.151462 -0.2576,0.30375 -1.00267,1.011582 l -1.35466,1.286969 -0.10297,-0.630582 -0.10297,-0.630582 -0.024,0.635 -0.024,0.635 h -1.524 -1.524 l -0.018,-0.465667 -0.018,-0.465667 -0.18401,0.465667 -0.18401,0.465667 H 108.0899 44.231943 l -0.184008,-0.465667 -0.184008,-0.465667 -0.01801,0.465667 -0.01801,0.465667 h -1.429111 -1.429113 l -0.06642,-0.635 -0.06642,-0.635 -0.02847,0.635 c -0.01565,0.34925 -0.08561,0.633958 -0.155465,0.632687 -0.06985,-0.0014 -0.7366,-0.582395 -1.481666,-1.291387 z m 142.578677,0.2777 1.0054,-1.016 h 1.016 1.016 l -1.0054,1.016 -1.0054,1.016 h -1.016 -1.016 z m -151.4001,-1.905001 -0.322578,-0.381 0.381,0.322579 c 0.358046,0.303144 0.458088,0.439421 0.322578,0.439421 -0.03213,0 -0.203582,-0.17145 -0.381,-0.381 z m 155.29476,0.04233 c 0.16857,-0.186267 0.34459,-0.338667 0.39116,-0.338667 0.0466,0 -0.0532,0.1524 -0.22182,0.338667 -0.16857,0.186266 -0.34459,0.338666 -0.39116,0.338666 -0.0466,0 0.0532,-0.1524 0.22182,-0.338666 z m 5.16342,-9.609668 -4.31675,-4.360333 4.36033,4.316755 c 4.0519,4.011391 4.43664,4.403912 4.31675,4.403912 -0.024,0 -1.98611,-1.96215 -4.36033,-4.360334 z m -160.950091,-4.445 c 0.458664,-0.465667 0.872035,-0.846667 0.918602,-0.846667 0.04657,0 -0.290604,0.381 -0.749269,0.846667 -0.458664,0.465667 -0.872035,0.846667 -0.918602,0.846667 -0.04657,0 0.290604,-0.381 0.749269,-0.846667 z m 6.096,-0.508 c 0.168569,-0.186267 0.344589,-0.338667 0.391156,-0.338667 0.04657,0 -0.05325,0.1524 -0.221822,0.338667 -0.168569,0.186267 -0.34459,0.338667 -0.391156,0.338667 -0.04657,0 0.05325,-0.1524 0.221822,-0.338667 z m 144.086591,-0.04233 -0.32258,-0.381 0.381,0.322578 c 0.20955,0.177418 0.381,0.348868 0.381,0.381 0,0.135509 -0.13628,0.03547 -0.43942,-0.322578 z m 4.66364,-0.931334 -0.58356,-0.635 0.635,0.583551 c 0.59105,0.543157 0.71286,0.686449 0.58356,0.686449 -0.0283,0 -0.31405,-0.28575 -0.635,-0.635 z m -4.39511,-4.402667 -3.46978,-3.513667 3.51367,3.469785 c 1.93251,1.908381 3.51366,3.489532 3.51366,3.513667 0,0.120309 -0.33358,-0.205045 -3.55755,-3.469785 z"
         id="path1114" />
      <path
         style="fill:#edd2d2;stroke-width:0.169333"
         d="m 32.308341,87.364958 -1.095775,-1.143 1.143,1.095775 c 1.061667,1.017804 1.220407,1.190226 1.095775,1.190226 -0.02597,0 -0.540324,-0.514351 -1.143,-1.143001 z m 151.388899,0.04233 c 0.59999,-0.605367 1.12898,-1.100667 1.17555,-1.100667 0.0466,0 -0.40623,0.4953 -1.00622,1.100667 -0.59998,0.605366 -1.12898,1.100667 -1.17555,1.100667 -0.0466,0 0.40624,-0.495301 1.00622,-1.100667 z M 34.513678,84.866397 32.570982,82.918174 34.43075,81.09873 l 1.859768,-1.819443 -1.774082,1.820466 -1.774082,1.820465 1.941677,1.947202 c 1.067922,1.07096 1.903577,1.947201 1.857011,1.947201 -0.04657,0 -0.958881,-0.876701 -2.027364,-1.948224 z m 146.980272,0.04336 1.9435,-1.989535 -1.77408,-1.820465 -1.77408,-1.820466 1.8607,1.820376 1.8607,1.820374 -2.03012,1.989626 -2.03013,1.989625 z M 31.628822,79.321625 c 0.701712,-0.747639 0.853744,-0.882074 0.853744,-0.754924 0,0.02718 -0.36195,0.389126 -0.804334,0.804334 l -0.804333,0.754923 z m 152.745748,-0.04233 c -0.41131,-0.4191 -0.70974,-0.762 -0.66318,-0.762 0.0466,0 0.4212,0.3429 0.83252,0.762 0.41131,0.4191 0.70974,0.762 0.66318,0.762 -0.0466,0 -0.4212,-0.3429 -0.83252,-0.762 z M 35.276566,75.638624 c 0.834316,-0.8382 1.555039,-1.524 1.601606,-1.524 0.04657,0 -0.597956,0.6858 -1.432273,1.524 -0.834316,0.8382 -1.555039,1.524 -1.601606,1.524 -0.04657,0 0.597956,-0.6858 1.432273,-1.524 z m 145.453814,-0.04233 -1.52047,-1.566334 1.56633,1.52047 c 1.45478,1.412178 1.64341,1.612197 1.52047,1.612197 -0.0252,0 -0.73008,-0.70485 -1.56633,-1.566333 z M 46.706567,68.949957 c 0.315938,-0.325967 0.612534,-0.592667 0.659101,-0.592667 0.04657,0 -0.173829,0.2667 -0.489768,0.592667 -0.315939,0.325967 -0.612535,0.592667 -0.659101,0.592667 -0.04657,0 0.173829,-0.2667 0.489768,-0.592667 z m 122.588223,-0.04233 -0.58355,-0.635 0.635,0.583551 c 0.59104,0.543156 0.71286,0.686449 0.58355,0.686449 -0.0283,0 -0.31405,-0.28575 -0.635,-0.635 z m -123.94289,-3.175 c 0.315939,-0.325967 0.612534,-0.592667 0.659101,-0.592667 0.04657,0 -0.173829,0.2667 -0.489768,0.592667 -0.315939,0.325966 -0.612534,0.592666 -0.659101,0.592666 -0.04657,0 0.173829,-0.2667 0.489768,-0.592666 z m 125.29756,-0.04233 -0.58355,-0.635 0.635,0.583551 c 0.59104,0.543157 0.71285,0.686449 0.58355,0.686449 -0.0283,0 -0.31405,-0.28575 -0.635,-0.635 z"
         id="path1112" />
      <path
         style="fill:#dbdbdb;stroke-width:0.169333"
         d="m 30.590788,95.077151 c -5.126048,-5.048345 -9.501885,-9.417159 -9.724083,-9.708475 -0.222198,-0.291318 -0.441413,-0.790003 -0.487144,-1.108192 -0.07419,-0.516215 -0.063,-0.505574 0.103876,0.09881 0.196648,0.712192 2.113422,2.679608 14.646676,15.033661 2.713452,2.674655 4.899171,4.863005 4.857156,4.863005 -0.04202,0 -4.270433,-4.13046 -9.396481,-9.178807 z m 150.634102,4.30688 c 11.83662,-11.674733 14.16766,-14.029219 14.42371,-14.568823 0.14947,-0.314963 0.23092,-0.728819 0.181,-0.919682 -0.0631,-0.241354 -0.0368,-0.293127 0.0862,-0.170031 0.10108,0.101074 0.12944,0.420225 0.0661,0.74406 -0.0913,0.466715 -1.73499,2.178648 -9.28814,9.673423 -5.0475,5.008494 -9.45164,9.330222 -9.78696,9.603852 -0.33533,0.27362 1.60777,-1.68964 4.318,-4.362799 z M 34.768566,91.894625 33.421844,90.539959 h 1.006727 1.006727 l -1.010002,-1.058334 c -0.569132,-0.596366 -0.358141,-0.430059 0.483365,0.381 0.821351,0.791634 1.876327,1.877484 2.344391,2.413 l 0.851023,0.973667 h -0.994394 -0.994394 z m 6.43178,-0.547177 c -1.022879,-1.046014 -1.589453,-1.655614 -1.259051,-1.354666 0.3304,0.300947 0.649651,0.547177 0.709444,0.547177 0.0598,0 0.138608,-0.28575 0.17514,-0.635 l 0.06642,-0.635 0.02847,0.635 0.02846,0.635 h 1.439333 1.439334 l 0.01801,-0.465667 0.01801,-0.465667 0.184008,0.465667 0.184008,0.465667 h 63.857958 63.85796 l 0.18401,-0.465667 0.18401,-0.465667 0.018,0.465667 0.018,0.465667 h 1.51377 1.51378 l 0.0664,-0.635 0.0664,-0.635 0.0285,0.668218 0.0285,0.668216 0.635,-0.580393 c 0.34925,-0.319217 -0.2019,0.275434 -1.22478,1.321448 -1.28761,1.316733 -1.97788,1.901844 -2.24367,1.901844 -0.28182,0 -0.38693,-0.101298 -0.39534,-0.381 l -0.0115,-0.381 -0.18375,0.381 -0.18375,0.381 H 108.0899 44.218316 l -0.18375,-0.381 -0.183749,-0.381 -0.01146,0.381 c -0.0084,0.279702 -0.113527,0.381 -0.395347,0.381 -0.265784,0 -0.95606,-0.585111 -2.243667,-1.901844 z m 137.726404,0.928177 c 0.46807,-0.535516 1.52304,-1.621366 2.3444,-2.413 0.8415,-0.811059 1.05249,-0.977366 0.48336,-0.381 l -1.01,1.058334 h 1.00673 1.00672 l -1.34672,1.354666 -1.34672,1.354667 h -0.99439 -0.9944 z m -147.724837,-3.81 -0.497347,-0.550333 0.550333,0.497347 c 0.302683,0.273541 0.550333,0.521191 0.550333,0.550333 0,0.130821 -0.139721,0.01565 -0.603319,-0.497347 z m 153.172657,0.497347 c 0,-0.02914 0.24765,-0.276792 0.55034,-0.550333 l 0.55033,-0.497347 -0.49735,0.550333 c -0.46359,0.512989 -0.60332,0.628168 -0.60332,0.497347 z m 10.98506,-6.339347 c -0.21061,-0.268573 -0.20463,-0.274562 0.0639,-0.06393 0.28206,0.221212 0.37178,0.360267 0.2324,0.360267 -0.0352,0 -0.16851,-0.13335 -0.29634,-0.296333 z M 28.242155,75.257624 c 0.415208,-0.442383 0.777158,-0.804333 0.804334,-0.804333 0.12715,0 -0.0073,0.152032 -0.754924,0.853743 l -0.804333,0.754924 z m 157.904055,-1.693333 -0.8403,-0.889 0.889,0.840301 c 0.82607,0.780823 0.96665,0.937699 0.8403,0.937699 -0.0268,0 -0.42684,-0.40005 -0.889,-0.889 z m -149.514977,-1.143 c 0.168569,-0.186267 0.344589,-0.338667 0.391155,-0.338667 0.04657,0 -0.05325,0.1524 -0.221822,0.338667 -0.168569,0.186266 -0.344589,0.338666 -0.391156,0.338666 -0.04657,0 0.05325,-0.1524 0.221823,-0.338666 z m 142.731917,-0.04233 -0.32258,-0.381 0.381,0.322578 c 0.20955,0.177418 0.381,0.348868 0.381,0.381 0,0.13551 -0.13627,0.03547 -0.43942,-0.322578 z m -2.87054,-8.297334 -0.66937,-0.719666 0.71967,0.669366 c 0.66928,0.622503 0.79748,0.769967 0.66936,0.769967 -0.0277,0 -0.35151,-0.32385 -0.71966,-0.719667 z"
         id="path1110" />
      <path
         style="fill:#d3d3d3;stroke-width:0.169333"
         d="m 39.476358,103.58767 c -1.799621,-1.53431 -18.858021,-18.54701 -18.85253,-18.802019 0.003,-0.138037 0.186037,0.01436 0.40681,0.338667 0.545788,0.801727 18.561754,18.524102 19.269811,18.955782 0.310264,0.18916 0.472823,0.34421 0.361242,0.34456 -0.111582,3.4e-4 -0.644982,-0.3763 -1.185333,-0.83699 z m 136.571012,0.49324 c 0.70642,-0.43069 18.72431,-18.154901 19.27068,-18.956592 0.22103,-0.324304 0.4043,-0.476704 0.40726,-0.338667 0.005,0.255009 -17.05291,17.267709 -18.85253,18.802019 -0.54035,0.46069 -1.07375,0.83734 -1.18533,0.83699 -0.11158,-3.4e-4 0.0504,-0.15504 0.35992,-0.34375 z m -138.434925,-9.385821 -1.489212,-1.43287 1.019972,-0.0065 1.019973,-0.0065 1.308361,1.316079 c 0.719599,0.723844 1.30836,1.371544 1.30836,1.439334 0,0.06779 -0.377604,0.123254 -0.839121,0.123254 -0.822501,0 -0.868617,-0.02838 -2.328333,-1.43287 z m 6.942667,0 c -1.214699,-1.168744 -1.418981,-1.43406 -1.108212,-1.439333 0.276794,-0.0047 0.384134,-0.11067 0.39246,-0.387464 l 0.01146,-0.381 0.183749,0.381 0.18375,0.381 h 63.871591 63.87158 l 0.18375,-0.381 0.18375,-0.381 0.0115,0.381 c 0.008,0.276794 0.11567,0.382768 0.39246,0.387464 0.31077,0.0053 0.10649,0.270589 -1.10821,1.439333 l -1.48922,1.43287 H 108.0899 46.044324 Z m 131.014128,1.216965 c 0,-0.118747 0.55424,-0.766447 1.23165,-1.439333 l 1.23165,-1.223429 1.01202,0.0065 1.01201,0.0065 -1.48921,1.43287 c -1.41386,1.360363 -1.52738,1.43286 -2.24366,1.43286 -0.49858,0 -0.75446,-0.07323 -0.75446,-0.215905 z m -142.837975,-5.922429 -1.010699,-1.058333 1.058333,1.0107 c 0.582083,0.555884 1.058333,1.032134 1.058333,1.058333 0,0.125121 -0.167114,-0.0276 -1.105967,-1.0107 z m 150.542645,0.04233 c 0.55297,-0.5588 1.0435,-1.016 1.09006,-1.016 0.0466,0 -0.36776,0.4572 -0.92073,1.016 -0.55297,0.5588 -1.0435,1.016 -1.09006,1.016 -0.0466,0 0.36776,-0.4572 0.92073,-1.016 z m -162.781,-6.011334 c 0.0035,-0.2794 0.0414,-0.373201 0.08434,-0.208444 0.04293,0.164756 0.04011,0.393356 -0.0063,0.508 -0.04638,0.114643 -0.08151,-0.02016 -0.07806,-0.299556 z m 175.25374,0.08467 c 0,-0.232834 0.0384,-0.328084 0.0854,-0.211667 0.047,0.116417 0.047,0.306917 0,0.423333 -0.047,0.116417 -0.0854,0.02117 -0.0854,-0.211666 z m -7.82186,-8.763001 -0.92555,-0.973667 0.97367,0.925549 c 0.53551,0.509052 0.97366,0.947202 0.97366,0.973667 0,0.125688 -0.16192,-0.02098 -1.02178,-0.925549 z M 37.054566,72.01869 c 0,-0.03516 0.13335,-0.168513 0.296333,-0.296333 0.268573,-0.210629 0.274562,-0.20464 0.06393,0.06393 -0.221213,0.282066 -0.360267,0.371767 -0.360267,0.2324 z m 141.710404,-0.2324 c -0.21062,-0.268573 -0.20464,-0.274562 0.0639,-0.06393 0.16298,0.12782 0.29633,0.26117 0.29633,0.296333 0,0.139367 -0.13905,0.04967 -0.36027,-0.2324 z M 37.731899,65.901957 c 0.50587,-0.512234 0.957865,-0.931334 1.004432,-0.931334 0.04657,0 -0.329229,0.4191 -0.835098,0.931334 -0.50587,0.512233 -0.957865,0.931333 -1.004432,0.931333 -0.04657,0 0.329229,-0.4191 0.835098,-0.931333 z m 140.371561,-0.211667 -0.92555,-0.973667 0.97366,0.925549 c 0.53552,0.509052 0.97367,0.947202 0.97367,0.973667 0,0.125688 -0.16192,-0.02098 -1.02178,-0.925549 z"
         id="path1108" />
      <path
         style="fill:#cdcdcd;stroke-width:0.169333"
         d="m 39.911633,103.79029 c -0.210629,-0.26857 -0.20464,-0.27456 0.06393,-0.0639 0.162983,0.12782 0.296333,0.26117 0.296333,0.29633 0,0.13937 -0.139054,0.0497 -0.360266,-0.2324 z m 136.165607,0.2324 c 0,-0.0352 0.13335,-0.16851 0.29633,-0.29633 0.26858,-0.21063 0.27457,-0.20464 0.0639,0.0639 -0.22121,0.28207 -0.36027,0.37177 -0.36027,0.2324 z M 35.10591,99.133626 31.043232,95.027292 35.149566,99.08997 c 2.258483,2.23447 4.106333,4.08232 4.106333,4.10633 0,0.12 -0.374819,-0.24694 -4.149989,-4.062674 z m 145.96666,0.04233 c 2.23375,-2.2352 4.09946,-4.064 4.14602,-4.064 0.0466,0 -1.74294,1.8288 -3.97668,4.064 -2.23375,2.235204 -4.09946,4.064004 -4.14602,4.064004 -0.0466,0 1.74294,-1.8288 3.97668,-4.064004 z M 41.152433,98.126093 c -0.11176,-0.11176 -0.210796,-0.43561 -0.220079,-0.719667 -0.01473,-0.450705 -0.0309,-0.46746 -0.127,-0.131594 -0.103712,0.36247 -0.174187,0.324285 -1.210788,-0.656026 -0.605367,-0.572494 -0.935646,-0.911146 -0.733957,-0.75256 0.256908,0.202003 0.618704,0.274963 1.208294,0.243671 0.91688,-0.04866 1.116966,0.07335 2.481029,1.512944 l 0.669367,0.706432 h -0.931833 c -0.512508,0 -1.023273,-0.09144 -1.135033,-0.2032 z M 46.8759,96.948325 c -0.791634,-0.755931 -1.280934,-1.249758 -1.087334,-1.097394 0.324436,0.255335 5.202964,0.277028 62.301334,0.277028 57.09838,0 61.9769,-0.02169 62.30134,-0.277028 0.1936,-0.152364 -0.2957,0.341463 -1.08733,1.097394 l -1.43934,1.374421 H 108.0899 48.315233 Z m 126.75397,0.671396 c 0.36816,-0.390264 0.84123,-0.853318 1.05128,-1.029009 0.21006,-0.175691 0.49581,-0.433326 0.635,-0.572523 0.1392,-0.139199 0.25309,-0.171444 0.25309,-0.07166 0,0.286104 1.37249,0.212883 1.76467,-0.09414 0.1936,-0.151564 -0.10282,0.157175 -0.65872,0.686088 -0.8667,0.824636 -1.02786,0.91819 -1.13109,0.656573 -0.0964,-0.244346 -0.12276,-0.217602 -0.13229,0.134334 -0.0186,0.686929 -0.50104,0.999912 -1.54127,0.999912 h -0.91003 z m -148.345242,-8.138096 -4.232063,-4.275667 4.275667,4.232064 c 2.351617,2.327634 4.275667,4.251684 4.275667,4.275667 0,0.11992 -0.38662,-0.258894 -4.319271,-4.232064 z m 165.693942,-0.04233 c 2.28035,-2.281767 4.18418,-4.148667 4.23075,-4.148667 0.0466,0 -1.78107,1.8669 -4.06141,4.148667 -2.28034,2.281767 -4.18418,4.148667 -4.23074,4.148667 -0.0466,0 1.78106,-1.8669 4.0614,-4.148667 z m -156.728657,2.074333 -0.497347,-0.550333 0.550333,0.497347 c 0.512988,0.463598 0.628168,0.60332 0.497348,0.60332 -0.02914,0 -0.276793,-0.24765 -0.550334,-0.550334 z m 147.076657,0.497348 c 0,-0.02914 0.24765,-0.276793 0.55034,-0.550334 l 0.55033,-0.497347 -0.49735,0.550333 c -0.46359,0.512989 -0.60332,0.628168 -0.60332,0.497348 z M 20.655969,84.274625 c 0,-0.232833 0.03843,-0.328083 0.08541,-0.211667 0.04697,0.116417 0.04697,0.306917 0,0.423334 -0.04697,0.116416 -0.08541,0.02117 -0.08541,-0.211667 z M 195.58986,84.105292 c 0,-0.325967 0.0349,-0.459317 0.0774,-0.296334 0.0426,0.162984 0.0426,0.429684 0,0.592667 -0.0426,0.162983 -0.0774,0.02963 -0.0774,-0.296333 z M 36.377233,67.256624 c 0.218735,-0.232834 0.435801,-0.423334 0.482367,-0.423334 0.04657,0 -0.0943,0.1905 -0.313034,0.423334 -0.218736,0.232833 -0.435801,0.423333 -0.482368,0.423333 -0.04657,0 0.0943,-0.1905 0.313035,-0.423333 z m 142.985917,-0.296334 -0.32258,-0.381 0.381,0.322578 c 0.20955,0.177418 0.381,0.348868 0.381,0.381 0,0.13551 -0.13627,0.03547 -0.43942,-0.322578 z"
         id="path1106" />
      <path
         style="fill:#c9c9c9;stroke-width:0.169333"
         d="m 36.20635,100.06496 -3.469784,-3.513668 3.513667,3.469788 c 1.932516,1.90838 3.513666,3.48953 3.513666,3.51366 0,0.12031 -0.333583,-0.20504 -3.557549,-3.46978 z m 143.85022,-0.0423 c 1.95414,-1.955804 3.59108,-3.556004 3.63765,-3.556004 0.0466,0 -1.51418,1.6002 -3.46831,3.556004 -1.95414,1.9558 -3.59108,3.556 -3.63765,3.556 -0.0466,0 1.51418,-1.6002 3.46831,-3.556 z M 42.380689,99.382937 c -0.7494,-0.719204 -1.28661,-1.250494 -1.1938,-1.180644 0.09281,0.06985 0.588069,0.127 1.100577,0.127 h 0.931833 l -0.669367,-0.719444 -0.669366,-0.719443 0.650166,0.592443 c 0.357589,0.325843 1.184813,1.182994 1.838272,1.904777 l 1.188109,1.312334 h -0.695272 c -0.505134,0 -0.695275,-0.0695 -0.695275,-0.254 0,-0.1397 -0.122451,-0.254 -0.272117,-0.254 -0.172312,0 -0.236367,0.0932 -0.174647,0.254 0.05361,0.1397 0.08081,0.25189 0.06045,0.24931 -0.02036,-0.003 -0.650166,-0.59313 -1.399564,-1.312333 z m 6.442544,-0.417805 C 47.8919,98.020655 47.400227,97.491213 47.730629,97.788596 l 0.600726,0.540697 h 59.758545 59.75855 l 0.60073,-0.540697 c 0.3304,-0.297383 -0.16127,0.232059 -1.09261,1.176536 l -1.69333,1.717238 H 108.0899 50.516567 Z M 171.8108,99.387626 c 0.65346,-0.721783 1.48069,-1.578934 1.83827,-1.904777 l 0.65017,-0.592443 -0.66937,0.719443 -0.66936,0.719444 h 0.91003 c 0.59507,0 1.03186,-0.09756 1.26203,-0.281886 0.1936,-0.155039 -0.1052,0.160568 -0.664,0.701345 -1.89252,1.831488 -2.14089,2.044918 -2.02426,1.739538 0.0788,-0.20623 0.0304,-0.29633 -0.15895,-0.29633 -0.14967,0 -0.27212,0.1143 -0.27212,0.254 0,0.18454 -0.19014,0.254 -0.69527,0.254 h -0.69528 z m -131.551717,-2.032 -0.410517,-0.465667 0.451736,0.397431 0.451737,0.39743 0.07554,-0.39743 c 0.06863,-0.361097 0.07765,-0.354859 0.0986,0.06824 0.01268,0.256117 -0.03986,0.465667 -0.116757,0.465667 -0.0769,0 -0.324548,-0.20955 -0.550333,-0.465667 z m 135.160467,-0.08467 c 0.0158,-0.30607 0.0354,-0.320208 0.0995,-0.07189 0.0774,0.299263 0.0916,0.299263 0.44603,0 l 0.36612,-0.309115 -0.32258,0.381 c -0.17742,0.20955 -0.38697,0.381 -0.46566,0.381 -0.0787,0 -0.13425,-0.17145 -0.12345,-0.381 z m -134.144467,-0.931333 -0.410517,-0.465667 0.465667,0.410517 c 0.435236,0.38369 0.543321,0.520816 0.410516,0.520816 -0.03033,0 -0.239881,-0.20955 -0.465666,-0.465666 z m 133.108827,0.41268 c 0,-0.02914 0.24765,-0.276792 0.55033,-0.550333 l 0.55033,-0.497347 -0.49734,0.550333 c -0.4636,0.512989 -0.60332,0.628168 -0.60332,0.497347 z m -134.124827,-1.42868 -0.410517,-0.465667 0.465667,0.410516 c 0.435236,0.383691 0.543321,0.520817 0.410516,0.520817 -0.03033,0 -0.239881,-0.20955 -0.465666,-0.465666 z m 135.564157,-0.04233 c 0.16857,-0.186266 0.34459,-0.338666 0.39116,-0.338666 0.0466,0 -0.0533,0.1524 -0.22183,0.338666 -0.16857,0.186267 -0.34459,0.338667 -0.39115,0.338667 -0.0466,0 0.0533,-0.1524 0.22182,-0.338667 z M 26.893269,90.920959 22.745898,86.729958 26.936899,90.87733 c 3.894453,3.85391 4.267326,4.234629 4.147371,4.234629 -0.024,0 -1.909947,-1.88595 -4.191001,-4.191 z m 162.391971,0.04233 c 2.28035,-2.281767 4.18418,-4.148667 4.23074,-4.148667 0.0466,0 -1.78106,1.8669 -4.06141,4.148667 -2.28034,2.281767 -4.18417,4.148667 -4.23074,4.148667 -0.0466,0 1.78107,-1.8669 4.06141,-4.148667 z M 35.000967,92.275625 c -0.210629,-0.268572 -0.20464,-0.274562 0.06393,-0.06393 0.162984,0.127821 0.296334,0.261171 0.296334,0.296333 0,0.139368 -0.139055,0.04967 -0.360266,-0.2324 z m 145.817603,0.2324 c 0,-0.03516 0.13335,-0.168512 0.29634,-0.296333 0.26857,-0.210629 0.27456,-0.204639 0.0639,0.06393 -0.22121,0.282067 -0.36027,0.371768 -0.36027,0.2324 z M 21.149522,85.183122 c -0.193026,-0.245393 -0.34864,-0.531143 -0.345808,-0.635 0.0028,-0.103857 0.0897,-0.03643 0.193037,0.149836 0.103339,0.186267 0.303332,0.472017 0.444429,0.635 0.141098,0.162984 0.212161,0.296334 0.15792,0.296334 -0.05424,0 -0.256552,-0.200777 -0.449578,-0.44617 z m 173.827008,0.115802 c 0.10338,-0.144265 0.27251,-0.414699 0.37586,-0.600966 0.10334,-0.186266 0.19021,-0.247665 0.19304,-0.136442 0.003,0.111223 -0.16631,0.381657 -0.37586,0.600966 -0.20955,0.219307 -0.29641,0.280706 -0.19304,0.136442 z"
         id="path1104" />
      <path
         style="fill:#b1c7d6;stroke-width:0.169333"
         d="m 36.116867,93.376292 -0.840301,-0.889 0.889,0.840302 c 0.48895,0.462165 0.889,0.862215 0.889,0.889 0,0.126355 -0.156876,-0.01422 -0.937699,-0.840302 z m 143.770373,0.04233 c 0.45867,-0.465667 0.87204,-0.846667 0.9186,-0.846667 0.0466,0 -0.2906,0.381 -0.74927,0.846667 -0.45866,0.465666 -0.87203,0.846666 -0.9186,0.846666 -0.0466,0 0.29061,-0.381 0.74927,-0.846666 z M 30.111899,87.258692 c 0,-0.03516 0.13335,-0.168512 0.296333,-0.296334 0.268572,-0.210628 0.274562,-0.204639 0.06393,0.06393 -0.221212,0.282067 -0.360266,0.371768 -0.360266,0.2324 z m 155.595741,-0.2324 c -0.21063,-0.268573 -0.20464,-0.274562 0.0639,-0.06393 0.28207,0.221212 0.37177,0.360267 0.2324,0.360267 -0.0352,0 -0.16851,-0.13335 -0.29633,-0.296333 z m -155.352394,-7.535334 -0.497347,-0.550334 0.550333,0.497348 c 0.512988,0.463598 0.628168,0.603319 0.497348,0.603319 -0.02914,0 -0.276793,-0.24765 -0.550334,-0.550333 z m 154.865994,0.497347 c 0,-0.02914 0.24765,-0.276792 0.55033,-0.550333 l 0.55034,-0.497348 -0.49735,0.550334 c -0.4636,0.512988 -0.60332,0.628168 -0.60332,0.497347 z M 26.555899,76.908624 c 0.315939,-0.325966 0.612535,-0.592666 0.659102,-0.592666 0.04657,0 -0.17383,0.2667 -0.489769,0.592666 -0.315939,0.325967 -0.612535,0.592667 -0.659102,0.592667 -0.04657,0 0.173829,-0.2667 0.489769,-0.592667 z m 162.803361,-0.127 -0.49735,-0.550333 0.55033,0.497347 c 0.30268,0.273541 0.55033,0.521191 0.55033,0.550334 0,0.13082 -0.13971,0.01564 -0.60331,-0.497348 z M 39.933233,69.11929 c 1.348024,-1.350433 2.489053,-2.455333 2.535619,-2.455333 0.04657,0 -1.018262,1.1049 -2.366286,2.455333 -1.348024,1.350434 -2.489053,2.455334 -2.535619,2.455334 -0.04657,0 1.018262,-1.1049 2.366286,-2.455334 z m 136.141817,-0.04233 -2.45314,-2.497667 2.49766,2.453143 c 1.37372,1.349229 2.49767,2.473179 2.49767,2.497667 0,0.121186 -0.26329,-0.132879 -2.54219,-2.453143 z m 4.99222,-0.423333 -1.0107,-1.058334 1.05834,1.0107 c 0.9831,0.938853 1.13582,1.105967 1.0107,1.105967 -0.0262,0 -0.50245,-0.47625 -1.05834,-1.058333 z M 35.022566,68.61129 c 0.50587,-0.512233 0.957864,-0.931333 1.004431,-0.931333 0.04657,0 -0.329227,0.4191 -0.835098,0.931333 -0.50587,0.512234 -0.957864,0.931334 -1.004431,0.931334 -0.04657,0 0.329227,-0.4191 0.835098,-0.931334 z"
         id="path1102" />
      <path
         style="fill:#c4c4c4;stroke-width:0.169333"
         d="m 40.949233,104.20875 c -0.611605,-0.18847 -1.39527,-0.93626 -13.790881,-13.159633 -5.452024,-5.376269 -6.363645,-6.369508 -6.356068,-6.925123 0.002,-0.149987 0.142608,0.0321 0.312362,0.404631 0.440916,0.967613 18.325879,18.615535 19.52038,19.261665 l 0.860879,0.46567 h 66.664755 66.66475 l 0.83758,-0.42611 c 0.6175,-0.31415 3.27671,-2.83918 10.12032,-9.60967 7.46116,-7.381433 9.32883,-9.31647 9.51757,-9.860888 0.14418,-0.415865 0.23771,-0.540094 0.24226,-0.321815 0.004,0.195534 -0.20212,0.659423 -0.45823,1.030862 -0.68345,0.991185 -18.58097,18.535591 -19.31471,18.933621 -0.62107,0.33692 -0.96957,0.3388 -67.4263,0.36404 -47.364702,0.018 -66.974448,-0.0278 -67.394667,-0.15725 z m 17.441334,-2.06946 v -1.10066 h -3.800006 c -2.35068,0 -3.839921,-0.0646 -3.904661,-0.16934 -0.06969,-0.11276 19.108018,-0.16933 57.404,-0.16933 38.29599,0 57.4737,0.0566 57.40401,0.16933 -0.0647,0.10475 -1.55398,0.16934 -3.90466,0.16934 h -3.80001 v 1.10066 1.10067 H 108.0899 58.390567 Z m -15.163301,-1.82011 -0.669366,-0.71944 0.645385,0.59244 c 0.374623,0.34389 0.597907,0.46812 0.532216,0.29611 -0.07876,-0.20623 -0.03043,-0.29633 0.158948,-0.29633 0.149666,0 0.272117,0.1143 0.272117,0.254 0,0.18549 0.191967,0.254 0.7117,0.254 h 0.7117 l -0.668788,-0.719667 c -0.559741,-0.602324 -0.523929,-0.582654 0.219634,0.120637 0.488632,0.46216 0.888421,0.86221 0.888421,0.889 0,0.0268 -0.479835,0.0487 -1.0663,0.0487 -1.0365,0 -1.085009,-0.0201 -1.735667,-0.71945 z m 127.685304,-0.12722 c 0.45867,-0.465667 0.87132,-0.846667 0.917,-0.846667 0.0457,0 -0.21456,0.3048 -0.57833,0.677337 l -0.6614,0.67733 h 0.7117 c 0.51973,0 0.7117,-0.0685 0.7117,-0.254 0,-0.1397 0.12245,-0.254 0.27212,-0.254 0.18938,0 0.23771,0.0901 0.15895,0.29633 -0.0657,0.17201 0.15759,0.0478 0.53221,-0.29611 l 0.64539,-0.59244 -0.66937,0.71944 c -0.65512,0.70414 -0.69282,0.71945 -1.77163,0.71945 h -1.10227 z m -132.253879,-6.477001 -1.180792,-1.227667 1.227667,1.180792 c 0.675217,0.649436 1.227667,1.201886 1.227667,1.227667 0,0.124207 -0.177822,-0.04054 -1.274542,-1.180792 z m 138.688549,0.04233 c 0.64694,-0.651933 1.21435,-1.185333 1.26092,-1.185333 0.0466,0 -0.44465,0.5334 -1.09159,1.185333 -0.64693,0.651934 -1.21435,1.185334 -1.26091,1.185334 -0.0466,0 0.44464,-0.5334 1.09158,-1.185334 z"
         id="path1100" />
      <path
         style="fill:#b7b7b7;stroke-width:0.169333"
         d="m 40.635026,103.79029 c -0.608833,-0.32933 -3.542474,-3.11379 -10.02006,-9.510521 -8.259256,-8.156166 -9.861266,-9.84739 -9.587373,-10.121283 0.04657,-0.04657 0.2007,0.139717 0.342518,0.413962 0.356683,0.689751 18.612184,18.672172 19.380751,19.090842 0.618726,0.33705 0.941827,0.33867 67.423708,0.33867 66.48011,0 66.80502,-0.002 67.42901,-0.33867 0.93338,-0.50415 19.09613,-18.493324 19.40477,-19.219332 0.13859,-0.325966 0.28381,-0.502583 0.32272,-0.392479 0.0389,0.110102 -0.0437,0.421417 -0.18349,0.69181 -0.13982,0.270391 -4.37586,4.561808 -9.41341,9.53648 -6.47758,6.396731 -9.41122,9.181191 -10.02006,9.510521 l -0.86088,0.46567 H 108.17457 41.495905 Z"
         id="path1098" />
      <path
         style="fill:#e19a99;stroke-width:0.169333"
         d="m 46.873548,97.186292 -2.283648,-2.328333 2.328333,2.283648 c 1.280584,1.256005 2.328334,2.303755 2.328334,2.328334 0,0.121403 -0.251658,-0.120777 -2.373019,-2.283649 z m 122.258672,0.08467 c 2.12136,-2.162871 2.37302,-2.405052 2.37302,-2.283648 0,0.02458 -1.04775,1.072329 -2.32833,2.328334 l -2.32834,2.283648 z M 37.2023,92.106292 c -0.210629,-0.268573 -0.20464,-0.274562 0.06393,-0.06393 0.162983,0.127821 0.296333,0.261171 0.296333,0.296333 0,0.139368 -0.139055,0.04967 -0.360266,-0.2324 z m 141.41494,0.2324 c 0,-0.03516 0.13335,-0.168512 0.29633,-0.296333 0.26858,-0.210629 0.27457,-0.20464 0.0639,0.06393 -0.22121,0.282067 -0.36027,0.371768 -0.36027,0.2324 z m -139.448276,-2.857067 -2.368398,-2.413 2.413,2.368398 c 2.241567,2.200134 2.48969,2.457602 2.368398,2.457602 -0.02453,0 -1.110382,-1.08585 -2.413,-2.413 z m 137.670276,0.04233 c 1.30137,-1.303867 2.40423,-2.370667 2.4508,-2.370667 0.0466,0 -0.9801,1.0668 -2.28147,2.370667 -1.30137,1.303866 -2.40423,2.370666 -2.45079,2.370666 -0.0466,0 0.98009,-1.0668 2.28146,-2.370666 z M 37.223899,78.263291 c 0.599986,-0.605367 1.128983,-1.100667 1.17555,-1.100667 0.04657,0 -0.406231,0.4953 -1.006216,1.100667 -0.599986,0.605367 -1.128984,1.100667 -1.17555,1.100667 -0.04657,0 0.406231,-0.4953 1.006216,-1.100667 z m 141.557781,-0.04233 -1.09577,-1.143 1.143,1.095775 c 1.06166,1.017802 1.2204,1.190225 1.09577,1.190225 -0.026,0 -0.54032,-0.51435 -1.143,-1.143 z M 42.3039,68.818719 c 0,-0.02561 0.59055,-0.616164 1.312333,-1.312333 l 1.312333,-1.265762 -1.265761,1.312333 C 42.487193,68.771823 42.3039,68.942553 42.3039,68.818719 Z M 172.52124,67.59529 c -0.69384,-0.6985 -1.22342,-1.27 -1.17686,-1.27 0.0466,0 0.65236,0.5715 1.34619,1.27 0.69384,0.6985 1.22343,1.27 1.17686,1.27 -0.0466,0 -0.65235,-0.5715 -1.34619,-1.27 z"
         id="path1096" />
      <path
         style="fill:#96b4c8;stroke-width:0.169333"
         d="m 38.829679,96.085626 -1.85978,-1.905 1.905,1.859779 c 1.769439,1.727436 1.981893,1.950221 1.85978,1.950221 -0.02487,0 -0.882122,-0.85725 -1.905,-1.905 z m 138.429871,0 c 1.64863,-1.690765 1.86569,-1.897269 1.86569,-1.774974 0,0.02495 -0.81915,0.844096 -1.82033,1.820333 l -1.82034,1.774974 z M 30.619899,86.750692 c 0,-0.03516 0.13335,-0.168513 0.296333,-0.296334 0.268572,-0.210628 0.274562,-0.204639 0.06393,0.06393 -0.221212,0.282067 -0.360266,0.371768 -0.360266,0.2324 z m 154.579741,-0.2324 c -0.21063,-0.268573 -0.20464,-0.274562 0.0639,-0.06393 0.28207,0.221212 0.37177,0.360267 0.2324,0.360267 -0.0352,0 -0.16851,-0.13335 -0.29633,-0.296333 z M 30.281232,78.601958 c 0.218736,-0.232834 0.435801,-0.423334 0.482368,-0.423334 0.04657,0 -0.0943,0.1905 -0.313034,0.423334 -0.218736,0.232833 -0.435801,0.423333 -0.482368,0.423333 -0.04657,0 0.0943,-0.1905 0.313034,-0.423333 z m 155.435188,-0.04233 -0.41051,-0.465666 0.46566,0.410517 c 0.25612,0.225784 0.46567,0.435334 0.46567,0.465667 0,0.132803 -0.13713,0.02472 -0.52082,-0.410518 z M 25.370565,78.093958 c 0.31594,-0.325967 0.612536,-0.592667 0.659102,-0.592667 0.04657,0 -0.173829,0.2667 -0.489768,0.592667 -0.31594,0.325966 -0.612536,0.592666 -0.659102,0.592666 -0.04657,0 0.173829,-0.2667 0.489768,-0.592666 z m 165.176705,-0.127 -0.66936,-0.719667 0.71966,0.669366 c 0.66929,0.622504 0.79748,0.769967 0.66936,0.769967 -0.0276,0 -0.3515,-0.32385 -0.71966,-0.719666 z m -7.53315,-7.366001 -0.92555,-0.973667 0.97367,0.925549 c 0.53552,0.509052 0.97367,0.947202 0.97367,0.973667 0,0.125688 -0.16192,-0.02098 -1.02179,-0.925549 z M 33.244566,70.389291 c 0.458664,-0.465667 0.872035,-0.846667 0.918602,-0.846667 0.04657,0 -0.290604,0.381 -0.749269,0.846667 -0.458665,0.465666 -0.872035,0.846666 -0.918602,0.846666 -0.04657,0 0.290604,-0.381 0.749269,-0.846666 z M 43.14349,65.94429 c 0.70171,-0.747639 0.853743,-0.882073 0.853743,-0.754923 0,0.02718 -0.36195,0.389126 -0.804333,0.804333 l -0.804334,0.754924 z m 129.71642,-0.04233 c -0.41132,-0.4191 -0.70975,-0.762 -0.66318,-0.762 0.0466,0 0.42119,0.3429 0.83251,0.762 0.41132,0.4191 0.70975,0.762 0.66318,0.762 -0.0466,0 -0.4212,-0.3429 -0.83251,-0.762 z"
         id="path1094" />
      <path
         style="fill:#a7a7a7;stroke-width:0.169333"
         d="m 41.5419,103.92933 c -0.2794,-0.0679 -0.711339,-0.23176 -0.959865,-0.3641 -0.541972,-0.28858 -18.866587,-18.333801 -19.139456,-18.847631 -0.104653,-0.197068 4.16024,3.92964 9.47754,9.170464 5.3173,5.240825 9.730059,9.514767 9.806132,9.497657 0.07607,-0.0171 0.352825,0.0574 0.615005,0.16556 0.712958,0.29416 132.799554,0.28283 133.785004,-0.0115 0.58557,-0.17488 2.11422,-1.60218 9.56282,-8.928787 4.87621,-4.79635 9.19871,-9.103232 9.60553,-9.570849 0.41668,-0.47892 0.74465,-0.739289 0.75103,-0.596213 0.0154,0.344516 -18.7297,18.878869 -19.4764,19.257489 -0.56434,0.28615 -3.76973,0.30173 -67.056,0.32595 -36.554839,0.014 -66.69194,-0.0301 -66.97134,-0.0981 z"
         id="path1092" />
      <path
         style="fill:#e2807f;stroke-width:0.169333"
         d="m 45.260868,100.14963 -0.840302,-0.889004 0.889,0.840304 c 0.48895,0.46216 0.889,0.86221 0.889,0.889 0,0.12635 -0.156875,-0.0142 -0.937698,-0.8403 z m 4.663032,0.127 c -0.411316,-0.419104 -0.709747,-0.762004 -0.66318,-0.762004 0.04657,0 0.421198,0.3429 0.832513,0.762004 0.411316,0.4191 0.709748,0.762 0.663181,0.762 -0.04657,0 -0.421198,-0.3429 -0.832514,-0.762 z m 116.1556,0.0423 c 0.4152,-0.442384 0.77715,-0.804334 0.80433,-0.804334 0.12715,0 -0.007,0.152033 -0.75492,0.853744 l -0.80434,0.75492 z m 4.66374,-0.127 c 0.45866,-0.465667 0.87204,-0.846667 0.9186,-0.846667 0.0466,0 -0.2906,0.381 -0.74927,0.846667 -0.45866,0.46567 -0.87203,0.84667 -0.9186,0.84667 -0.0466,0 0.29061,-0.381 0.74927,-0.84667 z m -128.361039,-7.493001 -0.840301,-0.889 0.889,0.840301 c 0.48895,0.462165 0.889,0.862215 0.889,0.889 0,0.126355 -0.156876,-0.01422 -0.937699,-0.840301 z m 131.239709,0.04233 c 0.45866,-0.465667 0.87203,-0.846667 0.9186,-0.846667 0.0466,0 -0.2906,0.381 -0.74927,0.846667 -0.45866,0.465667 -0.87204,0.846667 -0.9186,0.846667 -0.0466,0 0.2906,-0.381 0.74927,-0.846667 z m -138.264022,-2.497667 -1.605322,-1.651 1.651,1.605323 c 0.90805,0.882927 1.651,1.625877 1.651,1.651 0,0.122705 -0.205671,-0.07189 -1.696678,-1.605323 z m 145.291352,0.04233 c 0.88109,-0.884767 1.64008,-1.608667 1.68665,-1.608667 0.0466,0 -0.63623,0.7239 -1.51732,1.608667 -0.88108,0.884766 -1.64007,1.608666 -1.68664,1.608666 -0.0466,0 0.63622,-0.7239 1.51731,-1.608666 z M 33.244566,77.839958 c 0.363769,-0.372534 0.699498,-0.677334 0.746065,-0.677334 0.04657,0 -0.212963,0.3048 -0.576732,0.677334 -0.363769,0.372533 -0.699498,0.677333 -0.746065,0.677333 -0.04657,0 0.212963,-0.3048 0.576732,-0.677333 z m 149.513374,-0.04233 -0.66937,-0.719666 0.71967,0.669366 c 0.66928,0.622503 0.79748,0.769967 0.66937,0.769967 -0.0277,0 -0.35152,-0.32385 -0.71967,-0.719667 z M 39.509899,75.977291 c 0.646938,-0.651933 1.214351,-1.185333 1.260917,-1.185333 0.04657,0 -0.444645,0.5334 -1.091583,1.185333 -0.646938,0.651933 -1.214351,1.185333 -1.260917,1.185333 -0.04657,0 0.444645,-0.5334 1.091583,-1.185333 z m 137.070451,0.04233 -1.09578,-1.143 1.143,1.095775 c 1.06167,1.017803 1.22041,1.190225 1.09578,1.190225 -0.026,0 -0.54033,-0.51435 -1.143,-1.143 z M 41.372566,69.711957 c 0.458665,-0.465667 0.872036,-0.846667 0.918603,-0.846667 0.04657,0 -0.290605,0.381 -0.749269,0.846667 -0.458665,0.465667 -0.872037,0.846667 -0.918603,0.846667 -0.04657,0 0.290604,-0.381 0.749269,-0.846667 z M 174.55324,69.62729 c -0.41132,-0.4191 -0.70975,-0.762 -0.66318,-0.762 0.0466,0 0.4212,0.3429 0.83251,0.762 0.41132,0.4191 0.70975,0.762001 0.66318,0.762001 -0.0466,0 -0.42119,-0.342901 -0.83251,-0.762001 z M 48.823233,66.663957 c 0.834318,-0.8382 1.555039,-1.524 1.601606,-1.524 0.04657,0 -0.597955,0.6858 -1.432272,1.524 -0.834318,0.8382 -1.555039,1.524 -1.601606,1.524 -0.04657,0 0.597955,-0.6858 1.432272,-1.524 z m 118.360477,-0.04233 -1.52047,-1.566334 1.56633,1.52047 c 1.45478,1.412178 1.64342,1.612197 1.52047,1.612197 -0.0252,0 -0.73007,-0.70485 -1.56633,-1.566333 z"
         id="path1090" />
      <path
         style="fill:#75a2c1;stroke-width:0.169333"
         d="m 41.620782,98.879626 -0.925549,-0.973667 0.973667,0.925549 c 0.904566,0.859865 1.051236,1.021785 0.925549,1.021785 -0.02647,0 -0.464616,-0.43815 -0.973667,-0.973667 z m 132.847788,-0.04233 c 0.55297,-0.5588 1.0435,-1.016 1.09007,-1.016 0.0466,0 -0.36776,0.4572 -0.92073,1.016 -0.55297,0.5588 -1.0435,1.016 -1.09007,1.016 -0.0466,0 0.36776,-0.4572 0.92073,-1.016 z M 30.696598,88.126958 l -0.669366,-0.719666 0.719667,0.669366 c 0.669283,0.622503 0.79748,0.769967 0.669366,0.769967 -0.02767,0 -0.351516,-0.32385 -0.719667,-0.719667 z m 154.609312,0.04233 c 0.36377,-0.372534 0.6995,-0.677334 0.74606,-0.677334 0.0466,0 -0.21296,0.3048 -0.57673,0.677334 -0.36377,0.372533 -0.6995,0.677333 -0.74606,0.677333 -0.0466,0 0.21296,-0.3048 0.57673,-0.677333 z m 6.42401,-9.017001 -0.49735,-0.550333 0.55034,0.497347 c 0.30268,0.273541 0.55033,0.521191 0.55033,0.550334 0,0.13082 -0.13972,0.01564 -0.60332,-0.497348 z M 24.354565,79.109958 c 0.218736,-0.232834 0.435801,-0.423334 0.482368,-0.423334 0.04657,0 -0.0943,0.1905 -0.313034,0.423334 -0.218736,0.232833 -0.435801,0.423333 -0.482368,0.423333 -0.04657,0 0.0943,-0.1905 0.313034,-0.423333 z m 7.704667,-2.286 c 0.740697,-0.745067 1.384822,-1.354667 1.431389,-1.354667 0.04657,0 -0.521358,0.6096 -1.262055,1.354667 -0.740697,0.745066 -1.384822,1.354666 -1.431389,1.354666 -0.04657,0 0.521358,-0.6096 1.262055,-1.354666 z m 151.888038,-0.04233 -1.3507,-1.397 1.397,1.350694 c 1.2975,1.254484 1.4742,1.443306 1.3507,1.443306 -0.0255,0 -0.65412,-0.62865 -1.397,-1.397 z m 0.76597,-4.445 c -0.41131,-0.4191 -0.70975,-0.762 -0.66318,-0.762 0.0466,0 0.4212,0.3429 0.83251,0.762 0.41132,0.4191 0.70975,0.762 0.66318,0.762 -0.0466,0 -0.42119,-0.3429 -0.83251,-0.762 z M 31.720566,71.913291 c 0.363769,-0.372534 0.699498,-0.677334 0.746065,-0.677334 0.04657,0 -0.212963,0.3048 -0.576732,0.677334 -0.363769,0.372533 -0.699498,0.677333 -0.746065,0.677333 -0.04657,0 0.212962,-0.3048 0.576732,-0.677333 z"
         id="path1088" />
      <path
         style="fill:#e76f6f;stroke-width:0.169333"
         d="m 43.061927,97.948293 -1.350694,-1.397001 1.397,1.350695 c 0.76835,0.742882 1.397,1.371532 1.397,1.397 0,0.123503 -0.188822,-0.0532 -1.443306,-1.350694 z m 129.882643,0.04233 c 0.7407,-0.745067 1.38483,-1.354667 1.43139,-1.354667 0.0466,0 -0.52136,0.6096 -1.26205,1.354667 -0.7407,0.745067 -1.38482,1.354667 -1.43139,1.354667 -0.0466,0 0.52136,-0.6096 1.26205,-1.354667 z M 43.904599,94.222959 43.235233,93.503292 43.9549,94.172658 c 0.669283,0.622504 0.79748,0.769968 0.669366,0.769968 -0.02767,0 -0.351516,-0.32385 -0.719667,-0.719667 z m 128.193311,0.04233 c 0.36377,-0.372533 0.6995,-0.677333 0.74606,-0.677333 0.0466,0 -0.21296,0.3048 -0.57673,0.677333 -0.36377,0.372534 -0.6995,0.677334 -0.74607,0.677334 -0.0466,0 0.21297,-0.3048 0.57674,-0.677334 z m -139.789569,-7.069667 -1.095775,-1.143 1.143,1.095775 c 1.061667,1.017803 1.220407,1.190225 1.095775,1.190225 -0.02597,0 -0.540324,-0.51435 -1.143,-1.143 z m 151.388899,0.04233 c 0.59999,-0.605366 1.12898,-1.100666 1.17555,-1.100666 0.0466,0 -0.40623,0.4953 -1.00622,1.100666 -0.59998,0.605367 -1.12898,1.100667 -1.17555,1.100667 -0.0466,0 0.40624,-0.4953 1.00622,-1.100667 z m -149.863746,-2.921 -1.435595,-1.481667 1.481667,1.435595 c 0.814916,0.789578 1.481667,1.456328 1.481667,1.481667 0,0.123208 -0.194401,-0.05947 -1.527739,-1.435595 z m 148.339746,0.04233 c 0.78752,-0.791634 1.46996,-1.439334 1.51652,-1.439334 0.0466,0 -0.55967,0.6477 -1.34719,1.439334 -0.78752,0.791633 -1.46995,1.439333 -1.51652,1.439333 -0.0466,0 0.55967,-0.6477 1.34719,-1.439333 z M 31.798156,79.321625 c 0.701711,-0.747639 0.853743,-0.882074 0.853743,-0.754924 0,0.02718 -0.36195,0.389126 -0.804333,0.804334 l -0.804334,0.754923 z m 152.407084,-0.04233 c -0.41131,-0.4191 -0.70975,-0.762 -0.66318,-0.762 0.0466,0 0.4212,0.3429 0.83251,0.762 0.41132,0.4191 0.70975,0.762 0.66318,0.762 -0.0466,0 -0.42119,-0.3429 -0.83251,-0.762 z m -10.33268,-5.969 -1.60532,-1.651 1.651,1.605322 c 1.53343,1.491006 1.72803,1.696678 1.60532,1.696678 -0.0251,0 -0.76807,-0.74295 -1.651,-1.651 z M 42.219233,73.267957 c 0.834317,-0.8382 1.555039,-1.524 1.601605,-1.524 0.04657,0 -0.597955,0.6858 -1.432272,1.524 -0.834317,0.8382 -1.555039,1.524001 -1.601605,1.524001 -0.04657,0 0.597955,-0.685801 1.432272,-1.524001 z m -2.878667,-1.524 c 0.646938,-0.651933 1.21435,-1.185333 1.260917,-1.185333 0.04657,0 -0.444646,0.5334 -1.091584,1.185333 -0.646938,0.651934 -1.21435,1.185334 -1.260917,1.185334 -0.04657,0 0.444646,-0.5334 1.091584,-1.185334 z m 137.244674,-0.08467 c -0.69384,-0.6985 -1.22342,-1.27 -1.17686,-1.27 0.0466,0 0.65236,0.5715 1.34619,1.27 0.69384,0.6985 1.22343,1.27 1.17686,1.27 -0.0466,0 -0.65235,-0.5715 -1.34619,-1.27 z"
         id="path1086" />
      <path
         style="fill:#969696;stroke-width:0.169333"
         d="m 41.330233,103.57369 c -0.20955,-0.0844 -0.381,-0.17499 -0.381,-0.20127 0,-0.0263 30.247592,-0.0478 67.216867,-0.0478 44.81125,0 67.16043,0.0564 67.04754,0.16933 -0.22025,0.22025 -133.337781,0.29952 -133.883407,0.0797 z M 179.49448,99.487241 c 2.20545,-2.173571 6.47265,-6.342494 9.48267,-9.264269 3.48948,-3.387185 2.34316,-2.205438 -3.16324,3.260974 -4.7498,4.71531 -9.017,8.884234 -9.48267,9.264274 -0.46567,0.38003 0.95779,-1.08741 3.16324,-3.260979 z m -141.426456,1.424389 -2.114125,-2.159004 2.159,2.114124 c 1.18745,1.16277 2.159,2.13432 2.159,2.159 0,0.12166 -0.240068,-0.10863 -2.203875,-2.11412 z m -9.05968,-8.890005 -1.859779,-1.905 1.905,1.85978 c 1.76944,1.727435 1.981893,1.950221 1.859779,1.950221 -0.02487,0 -0.882121,-0.85725 -1.905,-1.905001 z"
         id="path1084" />
      <path
         style="fill:#6b96b5;stroke-width:0.169333"
         d="m 43.141451,100.40363 -0.583551,-0.635004 0.635,0.583554 c 0.34925,0.32095 0.635,0.6067 0.635,0.635 0,0.1293 -0.143294,0.008 -0.686449,-0.58355 z m 129.718459,0.0423 c 0.31594,-0.32597 0.61253,-0.592667 0.6591,-0.592667 0.0466,0 -0.17383,0.266697 -0.48977,0.592667 -0.31594,0.32597 -0.61253,0.59267 -0.6591,0.59267 -0.0466,0 0.17383,-0.2667 0.48977,-0.59267 z m 10.07533,-4.487334 c 0.64694,-0.651934 1.21435,-1.185334 1.26092,-1.185334 0.0466,0 -0.44465,0.5334 -1.09159,1.185334 -0.64693,0.651933 -1.21435,1.185333 -1.26091,1.185333 -0.0466,0 0.44464,-0.5334 1.09158,-1.185333 z m -150.457566,-6.053667 -1.095775,-1.143 1.143,1.095774 c 1.061667,1.017804 1.220407,1.190226 1.095775,1.190226 -0.02597,0 -0.540324,-0.51435 -1.143,-1.143 z m 151.050236,0.04233 c 0.59998,-0.605367 1.12898,-1.100667 1.17555,-1.100667 0.0466,0 -0.40623,0.4953 -1.00622,1.100667 -0.59998,0.605367 -1.12898,1.100667 -1.17555,1.100667 -0.0466,0 0.40623,-0.4953 1.00622,-1.100667 z m 6.94266,-1.354667 c 0.21873,-0.232833 0.4358,-0.423333 0.48237,-0.423333 0.0466,0 -0.0943,0.1905 -0.31303,0.423333 -0.21873,0.232834 -0.4358,0.423334 -0.48236,0.423334 -0.0466,0 0.0943,-0.1905 0.31302,-0.423334 z M 22.999898,80.496305 c 0,-0.02914 0.247651,-0.276792 0.550334,-0.550333 l 0.550333,-0.497347 -0.497347,0.550333 c -0.463598,0.512988 -0.60332,0.628167 -0.60332,0.497347 z m 169.659192,-0.41268 -0.41052,-0.465667 0.46567,0.410517 c 0.25612,0.225785 0.46567,0.435335 0.46567,0.465666 0,0.132805 -0.13713,0.02472 -0.52082,-0.410516 z M 34.514566,74.368624 c 0.599986,-0.605367 1.128983,-1.100667 1.17555,-1.100667 0.04657,0 -0.406231,0.4953 -1.006217,1.100667 -0.599986,0.605367 -1.128983,1.100667 -1.17555,1.100667 -0.04657,0 0.406231,-0.4953 1.006217,-1.100667 z m 146.976454,-0.04233 -1.09578,-1.143 1.143,1.095775 c 1.06167,1.017802 1.22041,1.190225 1.09578,1.190225 -0.026,0 -0.54033,-0.51435 -1.143,-1.143 z m 4.56777,-0.677334 -0.58355,-0.635 0.635,0.583551 c 0.59105,0.543157 0.71286,0.686449 0.58355,0.686449 -0.0283,0 -0.31404,-0.28575 -0.635,-0.635 z M 30.450566,73.183291 c 0.315939,-0.325967 0.612535,-0.592667 0.659102,-0.592667 0.04657,0 -0.17383,0.2667 -0.489769,0.592667 -0.315939,0.325966 -0.612535,0.592666 -0.659102,0.592666 -0.04657,0 0.173829,-0.2667 0.489769,-0.592666 z m 145.613854,-9.355668 -0.41051,-0.465666 0.46566,0.410517 c 0.43524,0.38369 0.54333,0.520816 0.41052,0.520816 -0.0303,0 -0.23988,-0.20955 -0.46567,-0.465667 z M 40.187233,63.615957 c 0.168569,-0.186267 0.34459,-0.338667 0.391156,-0.338667 0.04657,0 -0.05325,0.1524 -0.221823,0.338667 -0.16857,0.186266 -0.34459,0.338666 -0.391156,0.338666 -0.04657,0 0.05325,-0.1524 0.221823,-0.338666 z"
         id="path1082" />
      <path
         style="fill:#8a8a8a;stroke-width:0.169333"
         d="m 74.773568,103.28229 c 18.370551,-0.0237 48.431452,-0.0237 66.802002,0 18.37055,0.0237 3.3401,0.0432 -33.401,0.0432 -36.741102,0 -51.771553,-0.0194 -33.401002,-0.0432 z m -40.179636,-5.841998 -1.0107,-1.058333 1.058334,1.0107 c 0.582083,0.555884 1.058333,1.032134 1.058333,1.058333 0,0.125121 -0.167114,-0.0276 -1.105967,-1.0107 z m 146.224638,0.666681 c 0,-0.02914 0.24765,-0.276792 0.55034,-0.550333 l 0.55033,-0.497348 -0.49735,0.550334 c -0.46359,0.512988 -0.60332,0.628167 -0.60332,0.497347 z m -154.271787,-8.540681 -0.583551,-0.635 0.635,0.583551 c 0.591044,0.543156 0.712857,0.686449 0.583551,0.686449 -0.0283,0 -0.314047,-0.28575 -0.635,-0.635 z m 162.907787,0.04233 c 0.31595,-0.325966 0.61253,-0.592666 0.6591,-0.592666 0.0466,0 -0.17382,0.2667 -0.48976,0.592666 -0.31594,0.325967 -0.61254,0.592667 -0.6591,0.592667 -0.0466,0 0.17383,-0.2667 0.48976,-0.592667 z"
         id="path1080" />
      <path
         style="fill:#5288ae;stroke-width:0.169333"
         d="m 33.147083,96.000959 -0.410517,-0.465667 0.465666,0.410517 c 0.435236,0.383691 0.543321,0.520817 0.410518,0.520817 -0.03033,0 -0.239883,-0.20955 -0.465667,-0.465667 z M 185.13657,93.757292 c 0.55297,-0.5588 1.0435,-1.016 1.09007,-1.016 0.0466,0 -0.36776,0.4572 -0.92073,1.016 -0.55297,0.5588 -1.0435,1.016 -1.09007,1.016 -0.0466,0 0.36776,-0.4572 0.92073,-1.016 z M 34.853232,92.317959 c -0.693838,-0.6985 -1.223424,-1.27 -1.176857,-1.27 0.04657,0 0.652353,0.5715 1.346191,1.27 0.693838,0.6985 1.223424,1.27 1.176857,1.27 -0.04657,0 -0.652352,-0.5715 -1.346191,-1.27 z m 145.118678,1.223428 c 0,-0.02561 0.59055,-0.616163 1.31233,-1.312333 l 1.31233,-1.265762 -1.26576,1.312333 c -1.17561,1.218867 -1.3589,1.389596 -1.3589,1.265762 z M 25.348966,88.380958 c -0.210629,-0.268572 -0.20464,-0.274562 0.06393,-0.06393 0.162983,0.127821 0.296333,0.261171 0.296333,0.296333 0,0.139368 -0.139054,0.04967 -0.360266,-0.2324 z M 191.48657,87.576625 c 0.31595,-0.325967 0.61253,-0.592667 0.6591,-0.592667 0.0466,0 -0.17382,0.2667 -0.48976,0.592667 -0.31594,0.325967 -0.61253,0.592667 -0.6591,0.592667 -0.0466,0 0.17382,-0.2667 0.48976,-0.592667 z m 2.37067,-6.265334 c -0.41131,-0.4191 -0.70974,-0.762 -0.66318,-0.762 0.0466,0 0.4212,0.3429 0.83251,0.762 0.41132,0.4191 0.70975,0.762 0.66318,0.762 -0.0466,0 -0.4212,-0.3429 -0.83251,-0.762 z M 22.237898,81.226625 c 0.36377,-0.372534 0.699499,-0.677334 0.746066,-0.677334 0.04657,0 -0.212963,0.3048 -0.576732,0.677334 -0.363769,0.372533 -0.699499,0.677333 -0.746065,0.677333 -0.04657,0 0.212962,-0.3048 0.576731,-0.677333 z m 165.433372,-5.969001 -1.0107,-1.058333 1.05834,1.010699 c 0.58208,0.555885 1.05833,1.032135 1.05833,1.058334 0,0.12512 -0.16711,-0.0276 -1.10597,-1.0107 z M 28.926565,74.707291 c 0.505871,-0.512234 0.957865,-0.931334 1.004432,-0.931334 0.04657,0 -0.329228,0.4191 -0.835098,0.931334 -0.505871,0.512233 -0.957865,0.931333 -1.004431,0.931333 -0.04657,0 0.329227,-0.4191 0.835097,-0.931333 z m 7.535334,-2.286 c 0.458665,-0.465667 0.872036,-0.846667 0.918603,-0.846667 0.04657,0 -0.290605,0.381 -0.749269,0.846667 -0.458665,0.465666 -0.872036,0.846666 -0.918603,0.846666 -0.04657,0 0.290605,-0.381 0.749269,-0.846666 z m 143.080311,-0.04233 -0.8403,-0.889 0.889,0.840301 c 0.82607,0.780823 0.96665,0.937699 0.8403,0.937699 -0.0268,0 -0.42684,-0.40005 -0.889,-0.889 z m -2.27964,-7.323667 c -0.41131,-0.4191 -0.70974,-0.762 -0.66318,-0.762 0.0466,0 0.4212,0.3429 0.83252,0.762 0.41131,0.4191 0.70974,0.762 0.66318,0.762 -0.0466,0 -0.4212,-0.3429 -0.83252,-0.762 z M 39.07949,64.758957 c 0.70171,-0.747639 0.853743,-0.882074 0.853743,-0.754924 0,0.02718 -0.36195,0.389126 -0.804334,0.804334 l -0.804333,0.754923 z"
         id="path1078" />
      <path
         style="fill:#e4504f;stroke-width:0.169333"
         d="M 46.873548,97.355626 44.5899,95.027292 46.918233,97.31094 c 1.280584,1.256005 2.328334,2.303755 2.328334,2.328334 0,0.121403 -0.251658,-0.120777 -2.373019,-2.283648 z m 122.258672,0.08467 c 2.12136,-2.162871 2.37302,-2.405051 2.37302,-2.283648 0,0.02458 -1.04775,1.072329 -2.32833,2.328334 l -2.32834,2.283648 z M 39.679233,94.603959 c -1.114689,-1.1176 -1.988607,-2.032 -1.94204,-2.032 0.04657,0 0.996684,0.9144 2.111373,2.032 1.114689,1.1176 1.988607,2.032 1.94204,2.032 -0.04657,0 -0.996684,-0.9144 -2.111373,-2.032 z m 136.652007,0 c 1.11469,-1.1176 2.06481,-2.032 2.11137,-2.032 0.0466,0 -0.82735,0.9144 -1.94204,2.032 -1.11469,1.1176 -2.0648,2.032 -2.11137,2.032 -0.0466,0 0.82735,-0.9144 1.94204,-2.032 z m -138.008438,-5.799667 -3.046236,-3.090334 3.090333,3.046236 c 1.699684,1.67543 3.090334,3.06608 3.090334,3.090334 0,0.120606 -0.304213,-0.175047 -3.134431,-3.046236 z m 139.363108,0.04233 c 1.67446,-1.6764 3.08257,-3.048 3.12914,-3.048 0.0466,0 -1.28535,1.3716 -2.95981,3.048 -1.67446,1.6764 -3.08257,3.048 -3.12914,3.048 -0.0466,0 1.28535,-1.3716 2.95981,-3.048 z M 35.276566,80.041291 c 1.581212,-1.583267 2.913031,-2.878667 2.959598,-2.878667 0.04657,0 -1.209053,1.2954 -2.790265,2.878667 -1.581212,1.583267 -2.91303,2.878667 -2.959597,2.878667 -0.04657,0 1.209052,-1.2954 2.790264,-2.878667 z m 145.455474,-0.04233 -2.8768,-2.921 2.921,2.876798 c 2.71378,2.672711 2.99755,2.965202 2.8768,2.965202 -0.0243,0 -1.33876,-1.31445 -2.921,-2.921 z m -144.693474,-4.953 c 1.161371,-1.164167 2.149685,-2.116667 2.196252,-2.116667 0.04657,0 -0.865548,0.9525 -2.026919,2.116667 -1.161371,1.164166 -2.149685,2.116666 -2.196251,2.116666 -0.04657,0 0.865546,-0.9525 2.026918,-2.116666 z m 143.930804,-0.04233 -2.11413,-2.159 2.159,2.114126 c 2.00549,1.963805 2.23578,2.203874 2.11413,2.203874 -0.0247,0 -0.99623,-0.97155 -2.159,-2.159 z M 45.518207,70.00829 c 0.976237,-1.001183 1.795387,-1.820333 1.820334,-1.820333 0.122294,0 -0.08421,0.217058 -1.774975,1.865692 l -1.820333,1.774975 z m 124.968003,-0.08467 -1.77497,-1.820334 1.82033,1.774975 c 1.69077,1.648634 1.89727,1.865692 1.77498,1.865692 -0.0249,0 -0.8441,-0.81915 -1.82034,-1.820333 z m -124.964977,-4.191 c 0.315939,-0.325967 0.612535,-0.592667 0.659101,-0.592667 0.04657,0 -0.173829,0.2667 -0.489768,0.592667 -0.315938,0.325966 -0.612534,0.592666 -0.659101,0.592666 -0.04657,0 0.173829,-0.2667 0.489768,-0.592666 z m 124.958887,-0.04233 -0.58355,-0.635 0.635,0.583551 c 0.59105,0.543157 0.71286,0.686449 0.58356,0.686449 -0.0283,0 -0.31405,-0.28575 -0.63501,-0.635 z"
         id="path1076" />
      <path
         style="fill:#487a9e;stroke-width:0.169333"
         d="m 40.093451,102.77429 -0.583552,-0.635 0.635,0.58355 c 0.34925,0.32096 0.635,0.60671 0.635,0.635 0,0.12931 -0.143293,0.008 -0.686448,-0.58355 z m 136.407119,-0.55033 c 0.55297,-0.5588 1.0435,-1.016 1.09007,-1.016 0.0466,0 -0.36776,0.4572 -0.92073,1.016 -0.55297,0.5588 -1.0435,1.016 -1.09007,1.016 -0.0466,0 0.36776,-0.4572 0.92073,-1.016 z m -145.54503,-8.424334 -1.774974,-1.820334 1.820333,1.774974 c 1.690764,1.648635 1.897268,1.865693 1.774975,1.865693 -0.02495,0 -0.844098,-0.81915 -1.820334,-1.820333 z m 5.57821,0.169333 -0.410517,-0.465667 0.465666,0.410517 c 0.435236,0.38369 0.543321,0.520817 0.410517,0.520817 -0.03033,0 -0.239882,-0.20955 -0.465666,-0.465667 z m 142.93016,0.04233 c 0.21873,-0.232833 0.4358,-0.423333 0.48237,-0.423333 0.0466,0 -0.0943,0.1905 -0.31304,0.423333 -0.21874,0.232834 -0.4358,0.423334 -0.48237,0.423334 -0.0466,0 0.0943,-0.1905 0.31304,-0.423334 z m 7.78933,-2.370667 c 0.59999,-0.605366 1.12898,-1.100666 1.17555,-1.100666 0.0466,0 -0.40623,0.4953 -1.00622,1.100666 -0.59998,0.605367 -1.12898,1.100667 -1.17554,1.100667 -0.0466,0 0.40623,-0.4953 1.00621,-1.100667 z m -163.579747,-4.953 -1.435595,-1.481667 1.481667,1.435595 c 1.376128,1.333337 1.558804,1.527739 1.435595,1.527739 -0.02534,0 -0.69209,-0.66675 -1.481667,-1.481667 z m 169.591077,-0.889 c 0.64694,-0.651933 1.21436,-1.185333 1.26093,-1.185333 0.0466,0 -0.44465,0.5334 -1.09159,1.185333 -0.64694,0.651933 -1.21436,1.185333 -1.26093,1.185333 -0.0466,0 0.44466,-0.5334 1.09159,-1.185333 z M 20.629232,82.866972 c 0,-0.02914 0.24765,-0.276792 0.550333,-0.550333 l 0.550333,-0.497348 -0.497347,0.550334 c -0.463598,0.512988 -0.603319,0.628167 -0.603319,0.497347 z m 174.400528,-0.412681 -0.41052,-0.465666 0.46567,0.410516 c 0.25611,0.225786 0.46566,0.435336 0.46566,0.465667 0,0.132805 -0.13712,0.02472 -0.52081,-0.410517 z m -167.373195,-6.477 c 0.168569,-0.186267 0.34459,-0.338667 0.391156,-0.338667 0.04657,0 -0.05325,0.1524 -0.221822,0.338667 -0.168569,0.186267 -0.344589,0.338667 -0.391156,0.338667 -0.04657,0 0.05325,-0.1524 0.221822,-0.338667 z m 150.690585,-9.863667 -0.32258,-0.381 0.381,0.322578 c 0.20955,0.177417 0.381,0.348867 0.381,0.381 0,0.135509 -0.13627,0.03547 -0.43942,-0.322578 z M 37.985899,65.81729 c 0.16857,-0.186266 0.34459,-0.338667 0.391157,-0.338667 0.04657,0 -0.05325,0.152401 -0.221823,0.338667 -0.16857,0.186267 -0.34459,0.338667 -0.391157,0.338667 -0.04657,0 0.05325,-0.1524 0.221823,-0.338667 z"
         id="path1074" />
      <path
         style="fill:#2f73a4;stroke-width:0.169333"
         d="m 38.572782,101.25029 -0.925549,-0.97366 0.973666,0.92555 c 0.904567,0.85986 1.051237,1.02178 0.925549,1.02178 -0.02646,0 -0.464615,-0.43815 -0.973666,-0.97367 z m 139.959788,-1.05833 c 0.55297,-0.558801 1.0435,-1.016001 1.09007,-1.016001 0.0466,0 -0.36776,0.4572 -0.92073,1.016001 -0.55297,0.5588 -1.0435,1.016 -1.09007,1.016 -0.0466,0 0.36776,-0.4572 0.92073,-1.016 z m -140.466896,-4.699001 -1.095775,-1.143 1.143,1.095775 c 1.061668,1.017803 1.220408,1.190225 1.095775,1.190225 -0.02597,0 -0.540324,-0.51435 -1.143,-1.143 z m 139.874236,0.04233 c 0.59998,-0.605366 1.12898,-1.100666 1.17555,-1.100666 0.0466,0 -0.40623,0.4953 -1.00622,1.100666 -0.59998,0.605367 -1.12898,1.100667 -1.17555,1.100667 -0.0466,0 0.40623,-0.4953 1.00622,-1.100667 z m -149.951043,-4.699 -0.840302,-0.889 0.889,0.840301 c 0.48895,0.462165 0.889,0.862215 0.889,0.889 0,0.126355 -0.156876,-0.01422 -0.937698,-0.840301 z M 188.43857,90.476025 c 0,-0.03516 0.13335,-0.168512 0.29634,-0.296333 0.26857,-0.210629 0.27456,-0.20464 0.0639,0.06393 -0.22121,0.282067 -0.36027,0.371768 -0.36027,0.2324 z M 21.223473,84.276217 c -0.830951,-0.839714 -0.964278,-1.051135 -0.774191,-1.227667 0.185845,-0.172591 0.204863,-0.169689 0.09974,0.01522 -0.08718,0.153346 0.19526,0.557071 0.858858,1.227667 0.543815,0.549554 0.950654,0.999185 0.904088,0.999185 -0.04657,0 -0.536388,-0.456484 -1.088491,-1.014408 z m 173.883687,-0.28264 c 0.42078,-0.454844 0.60594,-0.784784 0.52268,-0.931333 -0.10467,-0.184218 -0.0855,-0.186534 0.10207,-0.01229 0.19221,0.178576 0.10436,0.335111 -0.52268,0.931334 l -0.75372,0.716678 0.65165,-0.704381 z M 39.930881,68.99229 c 1.256004,-1.280583 2.303754,-2.328333 2.328333,-2.328333 0.121404,0 -0.120777,0.251658 -2.283648,2.373019 l -2.328333,2.283648 z m 136.144009,-0.08467 -2.28365,-2.328334 2.32833,2.283648 c 1.28059,1.256006 2.32834,2.303756 2.32834,2.328333 0,0.121405 -0.25166,-0.120776 -2.37302,-2.283647 z m 3.89702,-1.143 c -0.69384,-0.6985 -1.22343,-1.27 -1.17686,-1.27 0.0466,0 0.65235,0.5715 1.34619,1.27 0.69384,0.6985 1.22342,1.27 1.17686,1.27 -0.0466,0 -0.65235,-0.5715 -1.34619,-1.27 z m -143.679344,-0.254 c 0.740697,-0.745067 1.384822,-1.354667 1.431388,-1.354667 0.04657,0 -0.521358,0.6096 -1.262055,1.354667 -0.740697,0.745066 -1.384821,1.354666 -1.431388,1.354666 -0.04657,0 0.521358,-0.6096 1.262055,-1.354666 z"
         id="path1072" />
      <path
         style="fill:#e02524;stroke-width:0.169333"
         d="m 37.260636,92.016034 -9.02141,-9.022594 8.959002,-8.926741 8.959003,-8.926742 2.095,0.0092 2.095002,0.0092 -8.974667,8.882906 -8.974667,8.882906 9.102766,9.057207 9.102766,9.057214 H 48.44274 46.282046 l -9.02141,-9.022599 z m 137.418504,-0.03462 9.10277,-9.057207 -8.97467,-8.882907 -8.97467,-8.882905 2.09501,-0.0092 2.095,-0.0092 8.959,8.926742 8.959,8.926741 -9.02141,9.022594 -9.02141,9.022598 h -2.16069 -2.16069 z"
         id="path1070" />
      <path
         style="fill:#b12f3b;stroke-width:0.169333"
         d="m 28.926565,83.851292 c -0.411315,-0.419101 -0.709746,-0.762001 -0.663179,-0.762001 0.04657,0 0.421197,0.3429 0.832513,0.762001 0.411315,0.4191 0.709746,0.762 0.66318,0.762 -0.04657,0 -0.421198,-0.3429 -0.832514,-0.762 z m 158.150265,0.04233 c 0.41521,-0.442384 0.77716,-0.804334 0.80433,-0.804334 0.12715,0 -0.007,0.152033 -0.75492,0.853744 l -0.80433,0.754923 z M 28.919489,82.200291 c 0.415207,-0.442383 0.777157,-0.804333 0.804333,-0.804333 0.12715,0 -0.0073,0.152033 -0.754923,0.853743 l -0.804334,0.754924 z m 158.164421,-0.04233 c -0.41132,-0.4191 -0.70975,-0.762 -0.66318,-0.762 0.0466,0 0.4212,0.3429 0.83251,0.762 0.41132,0.4191 0.70975,0.762 0.66318,0.762 -0.0466,0 -0.4212,-0.3429 -0.83251,-0.762 z"
         id="path1068" />
      <path
         style="fill:#a03344;stroke-width:0.169333"
         d="m 30.450566,85.375292 c -0.411316,-0.4191 -0.709747,-0.762 -0.66318,-0.762 0.04657,0 0.421197,0.3429 0.832513,0.762 0.411316,0.4191 0.709746,0.762 0.66318,0.762 -0.04657,0 -0.421198,-0.3429 -0.832513,-0.762 z m 155.102264,0.04233 c 0.41521,-0.442383 0.77716,-0.804333 0.80433,-0.804333 0.12715,0 -0.007,0.152032 -0.75492,0.853743 l -0.80433,0.754923 z M 30.281232,80.803291 c 0.31594,-0.325966 0.612535,-0.592666 0.659102,-0.592666 0.04657,0 -0.173829,0.2667 -0.489768,0.592666 -0.31594,0.325967 -0.612536,0.592667 -0.659102,0.592667 -0.04657,0 0.173829,-0.2667 0.489768,-0.592667 z m 155.438898,-0.04233 -0.58356,-0.635 0.635,0.583551 c 0.59105,0.543156 0.71286,0.686449 0.58356,0.686449 -0.0283,0 -0.31405,-0.28575 -0.635,-0.635 z"
         id="path1066" />
      <path
         style="fill:#176399;stroke-width:0.169333"
         d="m 41.454881,98.879626 -2.283648,-2.328334 2.328333,2.283649 c 2.162871,2.121359 2.405052,2.373019 2.283648,2.373019 -0.02458,0 -1.072328,-1.04775 -2.328333,-2.328334 z m 6.225352,2.201514 c 1.979084,-0.0271 5.217584,-0.0271 7.196667,0 1.979084,0.0271 0.359834,0.0493 -3.598333,0.0493 -3.958167,0 -5.577417,-0.0222 -3.598334,-0.0493 z m 113.622677,0 c 1.97908,-0.0271 5.21758,-0.0271 7.19666,0 1.97909,0.0271 0.35984,0.0493 -3.59833,0.0493 -3.95817,0 -5.57742,-0.0222 -3.59833,-0.0493 z m 13.24798,-2.116847 c 2.12136,-2.162872 2.37302,-2.405052 2.37302,-2.283649 0,0.02458 -1.04775,1.072329 -2.32834,2.328334 l -2.32833,2.283652 z m -139.276593,-1.016 -2.368398,-2.413001 2.413,2.368398 c 2.241567,2.20013 2.48969,2.4576 2.368398,2.4576 -0.02453,0 -1.110381,-1.085847 -2.413,-2.412997 z M 181.49591,97.228626 c 1.06799,-1.071034 1.97991,-1.947334 2.02647,-1.947334 0.0466,0 -0.78914,0.8763 -1.85714,1.947334 -1.06799,1.071033 -1.97991,1.947333 -2.02648,1.947333 -0.0466,0 0.78915,-0.8763 1.85715,-1.947333 z m -150.032689,-8.170334 -1.605322,-1.651 1.651,1.605322 c 0.90805,0.882928 1.651,1.625878 1.651,1.651 0,0.122706 -0.205671,-0.07189 -1.696678,-1.605322 z m 153.080689,0.04233 c 0.88108,-0.884767 1.64008,-1.608667 1.68664,-1.608667 0.0466,0 -0.63622,0.7239 -1.51731,1.608667 -0.88109,0.884767 -1.64008,1.608667 -1.68664,1.608667 -0.0466,0 0.63622,-0.7239 1.51731,-1.608667 z m 4.40266,0.8674 c 0,-0.03516 0.13335,-0.168512 0.29634,-0.296333 0.26857,-0.210629 0.27456,-0.20464 0.0639,0.06393 -0.22121,0.282067 -0.36027,0.371768 -0.36027,0.2324 z M 30.450566,86.729958 c 0.315939,-0.325966 0.612535,-0.592666 0.659102,-0.592666 0.04657,0 -0.17383,0.2667 -0.489769,0.592666 -0.315939,0.325967 -0.612535,0.592667 -0.659102,0.592667 -0.04657,0 0.173829,-0.2667 0.489769,-0.592667 z m 155.100224,-0.04233 -0.58355,-0.635 0.635,0.583551 c 0.59105,0.543156 0.71286,0.686449 0.58355,0.686449 -0.0283,0 -0.31404,-0.28575 -0.635,-0.635 z m -155.358976,-7.159294 -0.491447,-0.51296 1.940456,-1.90004 1.940456,-1.90004 -1.854843,1.901028 -1.854842,1.901029 0.4905,0.511971 c 0.269775,0.281585 0.4524,0.511972 0.405833,0.511972 -0.04657,0 -0.305818,-0.230832 -0.576113,-0.51296 z m 155.619106,0.04332 0.49729,-0.554305 -1.85484,-1.901029 -1.85484,-1.901028 1.94425,1.903842 1.94426,1.903843 -0.5867,0.551491 -0.58671,0.551491 z M 26.555899,77.077958 c 0.315939,-0.325967 0.612535,-0.592667 0.659102,-0.592667 0.04657,0 -0.17383,0.2667 -0.489769,0.592667 -0.315939,0.325966 -0.612535,0.592666 -0.659102,0.592666 -0.04657,0 0.173829,-0.2667 0.489769,-0.592666 z m 162.889561,-0.04233 -0.58355,-0.635 0.635,0.583551 c 0.59104,0.543157 0.71286,0.686449 0.58355,0.686449 -0.0283,0 -0.31404,-0.28575 -0.635,-0.635 z m -6.93355,-6.731 c -0.69384,-0.6985 -1.22343,-1.27 -1.17686,-1.27 0.0466,0 0.65235,0.5715 1.34619,1.27 0.69384,0.6985 1.22342,1.27 1.17686,1.27 -0.0466,0 -0.65235,-0.5715 -1.34619,-1.27 z M 32.482566,71.358719 c 0,-0.02561 0.59055,-0.616164 1.312333,-1.312333 l 1.312334,-1.265762 -1.265762,1.312333 c -1.175612,1.218866 -1.358905,1.389596 -1.358905,1.265762 z M 42.974157,65.94429 c 0.415207,-0.442383 0.777157,-0.804333 0.804333,-0.804333 0.127149,0 -0.0073,0.152032 -0.754924,0.853743 l -0.804333,0.754924 z M 173.02924,65.90196 c -0.41132,-0.4191 -0.70975,-0.762 -0.66318,-0.762 0.0466,0 0.4212,0.3429 0.83251,0.762 0.41132,0.4191 0.70975,0.762 0.66318,0.762 -0.0466,0 -0.42119,-0.3429 -0.83251,-0.762 z"
         id="path1064" />
      <path
         style="fill:#2a4c7d;stroke-width:0.169333"
         d="m 29.515702,84.570958 -1.52047,-1.566333 1.566334,1.520469 c 0.861483,0.836258 1.566333,1.541108 1.566333,1.566334 0,0.122944 -0.200019,-0.06569 -1.612197,-1.52047 z m 156.975538,0.04233 c 0.83432,-0.838201 1.55504,-1.524001 1.60161,-1.524001 0.0466,0 -0.59796,0.6858 -1.43228,1.524001 -0.83431,0.8382 -1.55503,1.524 -1.6016,1.524 -0.0466,0 0.59795,-0.6858 1.43227,-1.524 z M 29.434566,81.480625 c 0.78752,-0.791634 1.469956,-1.439334 1.516523,-1.439334 0.04657,0 -0.559669,0.6477 -1.34719,1.439334 -0.787521,0.791633 -1.469956,1.439333 -1.516523,1.439333 -0.04657,0 0.559669,-0.6477 1.34719,-1.439333 z m 157.137604,-0.04233 -1.4356,-1.481666 1.48167,1.435594 c 1.37613,1.333338 1.5588,1.527739 1.4356,1.527739 -0.0253,0 -0.69209,-0.66675 -1.48167,-1.481667 z"
         id="path1062" />
      <path
         style="fill:#005693;stroke-width:0.169333"
         d="M 36.800566,99.3813 C 34.658499,97.260142 30.086499,92.76923 26.640565,89.401498 l -6.265333,-6.123151 2.878667,-2.848732 c 1.583266,-1.566803 6.167013,-6.067041 10.186103,-10.000529 l 7.307436,-7.151796 h 8.821565 8.821564 v 0.931333 0.931334 l -7.323667,0.0088 -7.323667,0.0088 -7.01649,6.935618 -7.01649,6.935618 0.537471,0.554529 0.537472,0.55453 -1.352649,1.344715 c -0.743956,0.739593 -1.352648,1.421194 -1.352648,1.514671 0,0.09347 0.663888,0.836933 1.475306,1.652129 l 1.475307,1.482173 -0.562974,0.580843 c -0.309635,0.319462 -0.535373,0.655611 -0.50164,0.746997 0.03373,0.09139 3.15875,3.222186 6.94448,6.957336 l 6.883145,6.791184 h 7.298523 7.298521 v 1.016 1.016 l -8.847667,-0.001 -8.847667,-0.001 -3.894667,-3.856657 z m 120.988674,2.84266 v -1.016 h 7.29852 7.29852 l 6.88315,-6.791179 c 3.78573,-3.73515 6.91074,-6.86595 6.94448,-6.957336 0.0337,-0.09139 -0.19201,-0.427535 -0.50164,-0.746997 l -0.56298,-0.580843 1.47531,-1.482173 c 0.81142,-0.815196 1.47531,-1.558654 1.47531,-1.652129 0,-0.09348 -0.60869,-0.775078 -1.35265,-1.514672 l -1.35265,-1.344715 0.53747,-0.55453 0.53747,-0.554529 -7.01649,-6.935618 -7.01649,-6.935618 -7.32366,-0.0088 -7.32367,-0.0088 V 64.208623 63.27729 h 8.82102 8.82101 l 7.30799,7.152516 c 4.01939,3.933884 8.60338,8.429597 10.18665,9.990474 l 2.87866,2.837959 -3.21733,3.177247 c -1.76953,1.747486 -6.35361,6.243373 -10.18683,9.99086 l -6.9695,6.813614 h -8.82084 -8.82083 z"
         id="path1060" />
    </g>
  </g>
</svg>
