<?xml version="1.0" encoding="UTF-8" standalone="no"?>
<!-- Created with Inkscape (http://www.inkscape.org/) -->

<svg
   width="89.153404mm"
   height="21.412191mm"
   viewBox="0 0 89.153404 21.412191"
   version="1.1"
   id="svg5"
   inkscape:version="1.1.2 (0a00cf5339, 2022-02-04)"
   sodipodi:docname="rbcorner (copy).svg"
   xmlns:inkscape="http://www.inkscape.org/namespaces/inkscape"
   xmlns:sodipodi="http://sodipodi.sourceforge.net/DTD/sodipodi-0.dtd"
   xmlns="http://www.w3.org/2000/svg"
   xmlns:svg="http://www.w3.org/2000/svg">
  <sodipodi:namedview
     id="namedview7"
     pagecolor="#505050"
     bordercolor="#eeeeee"
     borderopacity="1"
     inkscape:pageshadow="0"
     inkscape:pageopacity="0"
     inkscape:pagecheckerboard="0"
     inkscape:document-units="mm"
     showgrid="false"
     inkscape:zoom="1.6534231"
     inkscape:cx="123.9852"
     inkscape:cy="16.934564"
     inkscape:window-width="1366"
     inkscape:window-height="703"
     inkscape:window-x="0"
     inkscape:window-y="0"
     inkscape:window-maximized="1"
     inkscape:current-layer="layer1" />
  <defs
     id="defs2" />
  <g
     inkscape:label="Layer 1"
     inkscape:groupmode="layer"
     id="layer1"
     transform="translate(-58.078012,-114.27432)">
    <g
       id="g1277"
       transform="rotate(180,102.6209,109.95458)">
      <path
         style="fill:#afd0e3;stroke-width:0.264583"
         d="m 144.65757,86.6039 c 1.30362,-1.309687 2.42975,-2.38125 2.50251,-2.38125 0.0728,0 -0.9343,1.071563 -2.23792,2.38125 -1.30362,1.309688 -2.42975,2.38125 -2.50251,2.38125 -0.0728,0 0.9343,-1.071562 2.23792,-2.38125 z"
         id="path1297"
         sodipodi:nodetypes="sssss" />
      <path
         style="fill:#f29a99;stroke-width:0.264583"
         d="m 86.049814,95.930931 21.296416,-0.06933 2.91971,-2.911431 2.91971,-2.91143 12.69325,0.07137 12.69326,0.07138 -12.70452,0.06352 -12.70451,0.06352 -2.90139,2.910417 -2.90139,2.910416 -21.303477,-0.06455 -21.30347,-0.06455 z m 53.051506,-6.416154 c 0.26339,-0.291042 0.53842,-0.529167 0.61118,-0.529167 0.0728,0 -0.0832,0.238125 -0.34659,0.529167 -0.26339,0.291042 -0.53843,0.529167 -0.61119,0.529167 -0.0728,0 0.0832,-0.238125 0.3466,-0.529167 z"
         id="path1295" />
      <path
         style="fill:#90b5cd;stroke-width:0.264583"
         d="m 58.037547,102.41321 c 0.06557,-0.0364 1.662989,-1.55442 3.549826,-3.373433 l 3.430613,-3.307292 -3.303321,3.373438 c -1.816827,1.855387 -3.414249,3.373437 -3.549827,3.373437 -0.135577,0 -0.192859,-0.0298 -0.127291,-0.0661 z"
         id="path1293"
         sodipodi:nodetypes="cscsscc" />
      <path
         style="fill:#77b1d7;stroke-width:0.264583"
         d="m 110.07984,105.47362 c 0.19099,-0.0764 0.41919,-0.067 0.50712,0.0209 0.0879,0.0879 -0.0684,0.15045 -0.34727,0.13896 -0.30823,-0.0127 -0.37092,-0.0754 -0.15985,-0.15985 z m -52.021732,-3.9203 c 0.0054,-0.43656 0.06469,-0.58313 0.131774,-0.3257 0.06708,0.25744 0.06267,0.61462 -0.0098,0.79375 -0.07248,0.17914 -0.127363,-0.0315 -0.121971,-0.46805 z m 0.06607,-9.260418 c -1.11e-4,-4.511146 0.03597,-6.393811 0.08017,-4.1837 0.0442,2.210112 0.0443,5.901049 2.03e-4,8.202084 -0.04409,2.301034 -0.08026,0.492762 -0.08037,-4.018384 z m 82.633882,-3.494421 c 0.32911,-0.06329 0.80537,-0.06088 1.05833,0.0053 0.25296,0.06622 -0.0163,0.118003 -0.5984,0.115067 -0.58208,-0.0029 -0.78905,-0.05712 -0.45993,-0.120406 z"
         id="path1291" />
      <path
         style="fill:#608fad;stroke-width:0.264583"
         d="m 142.6732,88.356549 c 0,-0.05494 0.20836,-0.263302 0.46302,-0.463021 0.41964,-0.329107 0.429,-0.319749 0.0999,0.0999 -0.34564,0.440729 -0.56291,0.580887 -0.56291,0.363126 z"
         id="path1289"
         sodipodi:nodetypes="sssss" />
      <path
         style="fill:#e2494a;stroke-width:0.264583"
         d="m 109.99715,92.95436 c 1.59577,-1.600729 2.96093,-2.910416 3.03369,-2.910416 0.0728,0 -1.17334,1.309687 -2.7691,2.910416 -1.59577,1.600729 -2.96093,2.910417 -3.03369,2.910417 -0.0728,0 1.17334,-1.309688 2.7691,-2.910417 z m -44.582289,2.545939 c 0,-0.05494 0.20836,-0.263302 0.463021,-0.463021 0.419644,-0.329108 0.429003,-0.319749 0.0999,0.0999 -0.345644,0.440729 -0.562916,0.580887 -0.562916,0.363126 z m 60.532719,-5.654738 c 11.03045,-0.06156 12.7961,-0.125155 12.92675,-0.465622 0.0832,-0.216881 0.27609,-0.394329 0.4286,-0.394329 0.15251,0 0.0618,0.238125 -0.20161,0.529167 -0.46781,0.516927 -0.77322,0.527697 -13.20403,0.465622 l -12.72514,-0.06354 z"
         id="path1287" />
      <path
         style="fill:#f52424;stroke-width:0.264583"
         d="m 65.820035,95.32644 c 0.458576,-0.50672 0.907116,-0.519996 17.568629,-0.519996 14.226763,0 17.186846,-0.0622 17.626856,-0.370395 0.29084,-0.203717 1.65679,-1.513232 3.03543,-2.910033 l 2.50662,-2.539638 16.2252,0.0073 c 12.65283,0.0057 16.20152,0.07846 16.11765,0.330345 -0.0819,0.245934 -3.17885,0.354565 -12.97992,0.455292 l -12.87236,0.132292 -2.98924,2.980948 -2.98924,2.980948 -20.860106,-0.01355 c -20.720302,-0.01342 -20.856955,-0.017 -20.389519,-0.533513 z"
         id="path1285" />
      <path
         style="fill:#9e3750;stroke-width:0.264583"
         d="m 65.414861,95.203319 0.621408,-0.661459 h 17.204006 17.204005 l 2.94987,-2.910416 2.94988,-2.910417 16.77552,0.06414 16.77552,0.06414 -16.69385,0.07011 -16.69386,0.07011 -2.94713,2.908458 -2.94714,2.908459 H 83.280801 c -17.045743,0 -17.337752,0.0087 -17.662759,0.529166 -0.181758,0.291042 -0.441647,0.529167 -0.577529,0.529167 -0.135883,0 0.03257,-0.297656 0.374348,-0.661458 z"
         id="path1283" />
      <path
         style="fill:#025692;stroke-width:0.264583"
         d="m 58.278326,92.95436 -0.01814,-8.73125 h 44.094804 44.09478 l -1.22683,1.311582 c -0.67475,0.72137 -1.22683,1.435745 -1.22683,1.5875 0,0.151755 -0.16407,0.275918 -0.3646,0.275918 -0.20053,0 -0.5425,0.267891 -0.75992,0.595313 l -0.39532,0.595312 h -18.14644 -18.14644 l -1.13583,1.10983 c -0.6247,0.610406 -1.93797,1.890328 -2.91837,2.84427 l -1.78255,1.734442 H 83.172542 65.998441 l -0.820956,0.720377 c -0.451527,0.396207 -0.820957,0.801802 -0.820957,0.901323 0,0.244798 -5.615539,5.786633 -5.863593,5.786633 -0.108056,0 -0.20463,-3.929062 -0.214609,-8.73125 z"
         id="path1281"
         sodipodi:nodetypes="scccsssscccsscccssss" />
      <path
         style="fill:#1c4e78;stroke-width:0.264583"
         d="m 58.271111,102.01439 c 0,-0.11052 0.267891,-0.36551 0.595313,-0.56665 0.593198,-0.36441 0.593522,-0.36369 0.09128,0.20094 -0.539244,0.60624 -0.686597,0.68472 -0.686597,0.36571 z m 2.513542,-2.444897 c 0.716663,-0.727604 1.362555,-1.322916 1.435316,-1.322916 0.07276,0 -0.454069,0.595312 -1.170733,1.322916 -0.716663,0.727607 -1.362555,1.322917 -1.435316,1.322917 -0.07276,0 0.454069,-0.59531 1.170733,-1.322917 z m 2.513542,-2.513541 c 0.341774,-0.363802 0.680939,-0.661458 0.753699,-0.661458 0.07276,0 -0.147342,0.297656 -0.489116,0.661458 -0.341774,0.363802 -0.680939,0.661458 -0.7537,0.661458 -0.07276,0 0.147342,-0.297656 0.489117,-0.661458 z m 1.058333,-1.079804 c 0,-0.141662 0.36943,-0.581737 0.820957,-0.977944 l 0.820956,-0.720377 h 17.174101 17.174098 l 1.78255,-1.742409 c 0.9804,-0.958325 2.34299,-2.268012 3.02798,-2.910416 l 1.24544,-1.168008 2.45873,0.04715 2.45873,0.04715 -2.57637,0.151285 -2.57637,0.151285 -2.85191,2.84427 -2.85191,2.844271 H 83.282513 66.101512 l -0.872492,0.845653 c -0.479871,0.465109 -0.872492,0.729747 -0.872492,0.588085 z m 48.489932,-7.437925 c 0.25743,-0.06708 0.61462,-0.06267 0.79375,0.0098 0.17913,0.07247 -0.0315,0.127362 -0.46806,0.12197 -0.43656,-0.0054 -0.58312,-0.06469 -0.32569,-0.131774 z m 25.52726,0.0081 c 0.1819,-0.0734 0.47956,-0.0734 0.66146,0 0.1819,0.0734 0.0331,0.133452 -0.33073,0.133452 -0.3638,0 -0.51263,-0.06005 -0.33073,-0.133452 z m 3.43958,0 c 0.1819,-0.0734 0.47956,-0.0734 0.66146,0 0.1819,0.0734 0.0331,0.133452 -0.33073,0.133452 -0.3638,0 -0.51263,-0.06005 -0.33073,-0.133452 z m 1.31851,-0.915937 c 0.17948,-0.180821 0.39297,-0.262115 0.47443,-0.180653 0.0815,0.08146 -0.0654,0.229406 -0.32632,0.328766 -0.37708,0.143585 -0.40747,0.113194 -0.14811,-0.148113 z m 1.12889,-0.93662 c 0,-0.309911 2.33069,-2.608881 2.48671,-2.452864 0.0641,0.06411 -0.46918,0.696965 -1.18508,1.406354 -0.7159,0.709388 -1.30163,1.180318 -1.30163,1.04651 z"
         id="path1279"
         sodipodi:nodetypes="ssssssssssssssssscccsscccccccccssssssssssssssssssssssss" />
    </g>
  </g>
</svg>
