<?xml version="1.0" encoding="UTF-8" standalone="no"?>
<!-- Created with Inkscape (http://www.inkscape.org/) -->

<svg
   width="36.303955mm"
   height="7.8091249mm"
   viewBox="0 0 36.303955 7.8091248"
   version="1.1"
   id="svg5"
   inkscape:version="1.1.2 (0a00cf5339, 2022-02-04)"
   sodipodi:docname="rbsmbtn.svg"
   xmlns:inkscape="http://www.inkscape.org/namespaces/inkscape"
   xmlns:sodipodi="http://sodipodi.sourceforge.net/DTD/sodipodi-0.dtd"
   xmlns="http://www.w3.org/2000/svg"
   xmlns:svg="http://www.w3.org/2000/svg">
  <sodipodi:namedview
     id="namedview7"
     pagecolor="#505050"
     bordercolor="#eeeeee"
     borderopacity="1"
     inkscape:pageshadow="0"
     inkscape:pageopacity="0"
     inkscape:pagecheckerboard="0"
     inkscape:document-units="mm"
     showgrid="false"
     inkscape:zoom="1.6534231"
     inkscape:cx="93.140103"
     inkscape:cy="-84.672821"
     inkscape:window-width="1366"
     inkscape:window-height="703"
     inkscape:window-x="0"
     inkscape:window-y="0"
     inkscape:window-maximized="1"
     inkscape:current-layer="layer1" />
  <defs
     id="defs2" />
  <g
     inkscape:label="Layer 1"
     inkscape:groupmode="layer"
     id="layer1"
     transform="translate(-69.992171,-141.1206)">
    <g
       id="g3069"
       transform="translate(-1.9933935,16.692248)">
      <path
         style="fill:#a1cfe1;stroke-width:0.264583"
         d="m 79.251452,132.16308 c 4.183724,-0.0409 11.029818,-0.0409 15.213542,0 4.183725,0.0409 0.760677,0.0744 -7.606771,0.0744 -8.367448,0 -11.790495,-0.0335 -7.606771,-0.0744 z m -0.859896,-3.22569 c 0,-0.13693 0.117699,-0.32171 0.261553,-0.41062 0.149982,-0.0927 0.194338,0.0135 0.103984,0.24897 -0.175893,0.45837 -0.365537,0.54223 -0.365537,0.16165 z m 1.852083,-0.24897 c 0,-0.29104 0.119063,-0.60275 0.264584,-0.69269 0.145521,-0.0899 0.264583,0.0746 0.264583,0.36565 0,0.29104 -0.119062,0.60275 -0.264583,0.69268 -0.145521,0.0899 -0.264584,-0.0746 -0.264584,-0.36564 z m 2.381251,0.30987 c 0.618822,-0.13327 0.627349,-0.15618 0.132291,-0.35547 -0.469996,-0.1892 -0.475646,-0.2151 -0.05053,-0.23162 0.26325,-0.0102 0.405052,-0.13766 0.315115,-0.28318 -0.08994,-0.14552 -0.02915,-0.26458 0.135078,-0.26458 0.16423,0 0.260554,0.26789 0.214053,0.59531 -0.0598,0.42104 -0.278185,0.608 -0.746006,0.63866 l -0.661459,0.0433 z m 1.062385,-0.43964 c -0.0035,-0.66205 0.0497,-0.7154 0.412988,-0.41389 0.345193,0.28648 0.456671,0.28199 0.647072,-0.0261 0.289833,-0.46896 0.641957,-0.1521 0.433798,0.39036 -0.09422,0.24554 -0.324913,0.3386 -0.588556,0.23744 -0.243678,-0.0935 -0.536011,-0.005 -0.667422,0.20289 -0.167099,0.2639 -0.234985,0.1524 -0.23788,-0.39071 z m 3.704166,-0.081 c 0.0033,-0.59971 0.05924,-0.66846 0.284727,-0.34963 0.211219,0.29867 0.313883,0.31504 0.414872,0.0662 0.221178,-0.5451 0.619559,-0.37377 0.615215,0.26458 -0.0029,0.4235 -0.06815,0.49422 -0.226135,0.24504 -0.179384,-0.28294 -0.305782,-0.26658 -0.657407,0.085 -0.404042,0.40404 -0.435032,0.38168 -0.431272,-0.31118 z m 2.424731,0.3691 c -0.187567,-0.226 -0.194713,-0.46939 -0.02137,-0.7276 0.209134,-0.31152 0.245268,-0.28369 0.183303,0.14116 -0.05785,0.39664 0.06862,0.52426 0.504979,0.50958 0.320187,-0.0108 0.521519,0.0785 0.447406,0.19843 -0.202247,0.32725 -0.795561,0.26252 -1.114323,-0.12157 z m 3.127468,-0.34662 c 0,-0.35018 0.126089,-0.63669 0.280198,-0.63669 0.154109,0 0.211137,0.11174 0.126727,0.24832 -0.08441,0.13658 0.0412,0.35727 0.279133,0.49042 0.378985,0.21209 0.363278,0.26023 -0.126726,0.38837 -0.454951,0.11897 -0.559332,0.0274 -0.559332,-0.49042 z m 2.87665,0.62008 c -0.161846,-0.31704 -0.109585,-1.25677 0.06989,-1.25677 0.125652,0 0.228458,0.29766 0.228458,0.66146 0,0.5479 -0.159789,0.86674 -0.29835,0.59531 z m 2.433615,-0.66146 c 0.01561,-0.61067 0.05079,-0.64538 0.21894,-0.216 0.137726,0.3517 0.260842,0.41372 0.393893,0.19844 0.296127,-0.47914 0.968084,-0.38776 0.778653,0.10589 -0.113403,0.29553 -0.217096,0.32799 -0.351751,0.11011 -0.134654,-0.21788 -0.238347,-0.18542 -0.35175,0.11011 -0.26085,0.67976 -0.70812,0.47917 -0.687985,-0.30855 z m 1.869515,0 c 0.032,-0.64624 0.0491,-0.65933 0.15269,-0.11705 0.097,0.50767 0.25814,0.59684 0.95616,0.52917 0.46172,-0.0448 0.8395,-0.22029 0.8395,-0.39007 0,-0.16977 0.0804,-0.38904 0.17858,-0.48726 0.23513,-0.23513 0.1293,0.43824 -0.13549,0.86209 -0.11364,0.1819 -0.61631,0.33073 -1.11704,0.33073 -0.82554,0 -0.90707,-0.0678 -0.8744,-0.72761 z m 2.79082,0.52917 c -0.0631,-0.10914 -0.019,-0.43656 0.0981,-0.72761 0.18584,-0.46196 0.21524,-0.43676 0.23147,0.19844 0.0183,0.71782 -0.10543,0.91657 -0.32955,0.52917 z m -25.845601,-0.59531 c 0,-0.29105 0.107916,-0.52917 0.239813,-0.52917 0.131898,0 0.177542,0.23812 0.101433,0.52917 -0.07611,0.29104 -0.184025,0.52916 -0.239813,0.52916 -0.05579,0 -0.101433,-0.23812 -0.101433,-0.52916 z m 2.38125,0 c 0,-0.29105 0.119063,-0.52917 0.264584,-0.52917 0.145521,0 0.264583,0.23812 0.264583,0.52917 0,0.29104 -0.119062,0.52916 -0.264583,0.52916 -0.145521,0 -0.264584,-0.23812 -0.264584,-0.52916 z m 16.933335,-0.0985 c 0,-0.39005 0.07728,-0.43128 0.363339,-0.19387 0.199837,0.16585 0.527259,0.25947 0.727604,0.20805 0.200345,-0.0514 0.274227,-0.0433 0.164179,0.018 -0.110048,0.0613 -0.151183,0.19065 -0.09141,0.28736 0.05977,0.0967 -0.177612,0.17584 -0.527518,0.17584 -0.445357,0 -0.636193,-0.14861 -0.636193,-0.49542 z m -10.847918,0.11416 c 0,-0.13693 0.119063,-0.32255 0.264584,-0.41249 0.145521,-0.0899 0.264583,0.0221 0.264583,0.24897 0,0.22687 -0.119062,0.41249 -0.264583,0.41249 -0.145521,0 -0.264584,-0.11204 -0.264584,-0.24897 z"
         id="path3089" />
      <path
         style="fill:#f09b98;stroke-width:0.264583"
         d="m 76.804056,125.9825 c 0,-0.16139 0.267891,-0.57605 0.595313,-0.92147 0.565398,-0.59647 0.764827,-0.62826 3.96875,-0.6326 1.85539,-0.003 3.373654,0.0847 3.373919,0.19386 2.65e-4,0.10914 -1.501666,0.16167 -3.337626,0.11673 -3.230852,-0.0791 -3.351943,-0.0621 -3.768739,0.52917 -0.236847,0.33598 -0.401791,0.70017 -0.366541,0.80931 0.03525,0.10914 -0.05497,0.19844 -0.200493,0.19844 -0.14552,0 -0.264583,-0.13205 -0.264583,-0.29344 z"
         id="path3087"
         sodipodi:nodetypes="sscsccsss" />
      <path
         style="fill:#8bb8ce;stroke-width:0.264583"
         d="m 97.590859,128.84422 c 0.09936,-0.26094 0.247303,-0.40778 0.328766,-0.32632 0.08146,0.0815 1.69e-4,0.29495 -0.180653,0.47443 -0.261307,0.25936 -0.291697,0.22897 -0.148113,-0.14811 z m 1.852083,0 c 0.09936,-0.26094 0.247304,-0.40778 0.328766,-0.32632 0.08146,0.0815 1.69e-4,0.29495 -0.180652,0.47443 -0.261308,0.25936 -0.291698,0.22897 -0.148114,-0.14811 z m -22.088831,-0.34137 c 0.01269,-0.30822 0.07539,-0.37092 0.159852,-0.15985 0.07643,0.19099 0.06703,0.4192 -0.02089,0.50712 -0.08792,0.0879 -0.150453,-0.0684 -0.138964,-0.34727 z m 8.445779,0.31494 c 0,-0.0572 0.178594,-0.17252 0.396875,-0.25628 0.218281,-0.0838 0.396875,-0.037 0.396875,0.10398 0,0.14096 -0.178594,0.25628 -0.396875,0.25628 -0.218281,0 -0.396875,-0.0468 -0.396875,-0.10398 z m 9.260417,-0.17621 c 0,-0.15411 0.119062,-0.20662 0.264583,-0.11668 0.145521,0.0899 0.264584,0.21602 0.264584,0.2802 0,0.0642 -0.119063,0.11667 -0.264584,0.11667 -0.145521,0 -0.264583,-0.12609 -0.264583,-0.28019 z m 7.143753,0.17621 c 0,-0.0572 0.18477,-0.17489 0.41061,-0.26155 0.23546,-0.0904 0.34167,-0.046 0.24897,0.10398 -0.15538,0.25141 -0.65958,0.37186 -0.65958,0.15757 z m -0.1647,-0.7422 c -0.10482,-0.1696 -0.062,-0.21997 0.10122,-0.11909 0.15558,0.0961 0.33077,0.0311 0.38931,-0.14453 0.0748,-0.22436 0.15975,-0.2331 0.28566,-0.0294 0.0986,0.15949 0.005,0.35678 -0.20766,0.43844 -0.21279,0.0817 -0.46863,0.0162 -0.56853,-0.14545 z m -21.266554,-0.0515 c 0,-0.0572 0.184778,-0.17489 0.410617,-0.26155 0.235459,-0.0904 0.341662,-0.046 0.248969,0.10398 -0.155379,0.25141 -0.659586,0.37186 -0.659586,0.15757 z m 1.455209,-0.1606 c -0.08994,-0.14552 0.02913,-0.26458 0.264583,-0.26458 0.235458,0 0.35452,0.11906 0.264583,0.26458 -0.08994,0.14552 -0.208999,0.26458 -0.264583,0.26458 -0.05558,0 -0.174646,-0.11906 -0.264583,-0.26458 z m 3.836458,-0.0156 c 0,-0.15411 0.119063,-0.20662 0.264583,-0.11668 0.145521,0.0899 0.264584,0.21602 0.264584,0.2802 0,0.0642 -0.119063,0.11667 -0.264584,0.11667 -0.14552,0 -0.264583,-0.12609 -0.264583,-0.28019 z m 5.55625,-0.0285 c 0,-0.12126 0.178594,-0.22048 0.396875,-0.22048 0.218282,0 0.396875,0.0992 0.396875,0.22048 0,0.12127 -0.178593,0.22049 -0.396875,0.22049 -0.218281,0 -0.396875,-0.0992 -0.396875,-0.22049 z"
         id="path3085" />
      <path
         style="fill:#70adc9;stroke-width:0.264583"
         d="m 86.879111,128.4808 c -0.01149,-0.31529 -0.169716,-0.63332 -0.351617,-0.70671 -0.259043,-0.10453 -0.257243,-0.13798 0.0083,-0.15435 0.401614,-0.0247 0.693688,0.6141 0.500563,1.09487 -0.075,0.1867 -0.145761,0.0815 -0.157249,-0.23381 z m 6.498016,-0.48507 c 0.08376,-0.21828 0.273198,-0.39687 0.420968,-0.39687 0.154861,0 0.129147,0.16811 -0.0607,0.39687 -0.181157,0.21828 -0.370593,0.39688 -0.420968,0.39688 -0.05038,0 -0.02306,-0.1786 0.0607,-0.39688 z m -15.911613,-0.13229 c -0.08994,-0.14552 0.0221,-0.26458 0.248969,-0.26458 0.226869,0 0.41249,0.11906 0.41249,0.26458 0,0.14552 -0.112036,0.26458 -0.248969,0.26458 -0.136932,0 -0.322553,-0.11906 -0.41249,-0.26458 z m 1.5875,0 c -0.08994,-0.14552 0.02913,-0.26458 0.264584,-0.26458 0.235458,0 0.35452,0.11906 0.264583,0.26458 -0.08994,0.14552 -0.208999,0.26458 -0.264583,0.26458 -0.05558,0 -0.174647,-0.11906 -0.264584,-0.26458 z m 11.112501,0 c -0.08994,-0.14552 -0.03743,-0.26458 0.116677,-0.26458 0.154109,0 0.280198,0.11906 0.280198,0.26458 0,0.14552 -0.0525,0.26458 -0.116677,0.26458 -0.06417,0 -0.190261,-0.11906 -0.280198,-0.26458 z"
         id="path3083" />
      <path
         style="fill:#5c97b3;stroke-width:0.264583"
         d="m 81.566556,128.5249 c 0,-0.3638 0.119063,-0.66146 0.264584,-0.66146 0.14552,0 0.264583,0.29766 0.264583,0.66146 0,0.3638 -0.119063,0.66146 -0.264583,0.66146 -0.145521,0 -0.264584,-0.29766 -0.264584,-0.66146 z m 18.224808,-0.0745 c -0.08716,-0.52579 -0.04834,-0.77261 0.09845,-0.62583 0.133306,0.13331 0.198076,0.524 0.143936,0.86821 -0.08332,0.52961 -0.120581,0.49235 -0.242386,-0.24238 z m -1.291474,-0.2057 c 0,-0.22687 0.121005,-0.3377 0.268899,-0.2463 0.147894,0.0914 0.200401,0.27702 0.116676,0.41249 -0.226809,0.36699 -0.385575,0.29856 -0.385575,-0.16619 z m -7.478889,-0.14951 c 0.179476,-0.18082 0.39297,-0.26211 0.474432,-0.18065 0.08146,0.0815 -0.06538,0.2294 -0.32632,0.32876 -0.377083,0.14359 -0.407474,0.1132 -0.148112,-0.14811 z"
         id="path3081" />
      <path
         style="fill:#4d7a97;stroke-width:0.264583"
         d="m 82.29416,129.27571 c 0.181901,-0.0734 0.479558,-0.0734 0.661459,0 0.181901,0.0734 0.03307,0.13345 -0.330729,0.13345 -0.363802,0 -0.512631,-0.0601 -0.33073,-0.13345 z m 7.954037,-0.006 c 0.190996,-0.0764 0.4192,-0.067 0.507118,0.0209 0.08792,0.0879 -0.06835,0.15045 -0.347265,0.13896 -0.308225,-0.0127 -0.37092,-0.0754 -0.159853,-0.15985 z m 1.477991,-0.19064 c -0.08546,-0.2227 -0.09402,-0.55767 -0.01902,-0.74437 0.075,-0.1867 0.157629,-0.0418 0.183623,0.322 l 0.04726,0.66146 0.211836,-0.66146 c 0.197199,-0.61575 0.213659,-0.6214 0.23821,-0.0818 0.03201,0.70367 -0.445718,1.06753 -0.661912,0.50413 z m 3.982678,0.0859 c -0.06705,-0.1085 0.0538,-0.17147 0.268564,-0.13995 0.552873,0.0811 0.75172,0.33721 0.261863,0.33721 -0.224682,0 -0.463374,-0.0888 -0.530427,-0.19726 z m 2.363468,-0.096 c -0.0805,-0.20978 -0.09058,-0.59673 -0.02238,-0.85989 0.08358,-0.32259 0.133974,-0.24861 0.154667,0.22707 0.01688,0.38806 0.17952,0.76561 0.361421,0.83901 0.259043,0.10453 0.257244,0.13798 -0.0083,0.15434 -0.18647,0.0115 -0.404897,-0.15075 -0.485399,-0.36053 z m 2.345786,0.19904 c 0.25466,-0.0666 0.67138,-0.0666 0.92604,0 0.25466,0.0665 0.0463,0.121 -0.46302,0.121 -0.50932,0 -0.71768,-0.0545 -0.46302,-0.121 z m 2.47465,-0.0381 c -0.075,-0.12126 0.0319,-0.22048 0.23733,-0.22048 0.20548,0 0.31228,0.0992 0.23733,0.22048 -0.075,0.12127 -0.18175,0.22049 -0.23733,0.22049 -0.0556,0 -0.16238,-0.0992 -0.23733,-0.22049 z m -20.31749,-0.48942 c 0.190996,-0.0764 0.419199,-0.067 0.507118,0.0209 0.08792,0.0879 -0.06835,0.15045 -0.347265,0.13897 -0.308225,-0.0127 -0.37092,-0.0754 -0.159853,-0.15986 z m 17.87443,-0.21077 c -0.0897,-0.23378 -0.0889,-0.4993 0.002,-0.59004 0.0907,-0.0907 0.17335,0.0632 0.18358,0.34214 0.0178,0.48459 0.0287,0.48361 0.24598,-0.022 0.18537,-0.43138 0.23083,-0.44649 0.24599,-0.0818 0.0255,0.61386 -0.47675,0.87463 -0.67741,0.3517 z m -17.010182,-0.29199 c 0.01269,-0.30823 0.07539,-0.37092 0.159852,-0.15986 0.07643,0.191 0.06703,0.4192 -0.02089,0.50712 -0.08792,0.0879 -0.150453,-0.0684 -0.138964,-0.34726 z m 12.720889,-0.11025 c 0,-0.3638 0.06005,-0.51263 0.133452,-0.33073 0.0734,0.18191 0.0734,0.47956 0,0.66146 -0.0734,0.1819 -0.133452,0.0331 -0.133452,-0.33073 z m 5.249893,0.11668 c 0,-0.22687 0.121,-0.3377 0.2689,-0.2463 0.14789,0.0914 0.2004,0.27702 0.11667,0.41249 -0.22681,0.36699 -0.38557,0.29856 -0.38557,-0.16619 z M 78.126973,128.0235 c 0,-0.0572 0.184777,-0.17489 0.410617,-0.26155 0.235459,-0.0904 0.341662,-0.046 0.248968,0.10398 -0.155379,0.25141 -0.659585,0.37186 -0.659585,0.15757 z m 12.255199,-3.00468 c 3.46614,-0.0418 9.062077,-0.0418 12.435418,10e-5 3.37334,0.0419 0.5374,0.0761 -6.302075,0.076 -6.839479,-6e-5 -9.599484,-0.0343 -6.133343,-0.0761 z"
         id="path3079" />
      <path
         style="fill:#f42524;stroke-width:0.264583"
         d="m 77.519308,125.35821 c 0.460735,-0.63303 0.576599,-0.6534 3.76264,-0.66146 l 3.287266,-0.008 -0.621408,0.66146 c -0.59516,0.63352 -0.75409,0.66146 -3.762639,0.66146 h -3.141232 z"
         id="path3077"
         sodipodi:nodetypes="cccsscc" />
      <path
         style="fill:#015695;stroke-width:0.264583"
         d="m 72.687438,131.4294 c 0.282475,-0.21503 0.609897,-0.39096 0.727604,-0.39096 0.117708,0 0.214014,-0.16375 0.214014,-0.36389 0,-0.35839 2.060895,-2.27918 2.447396,-2.28101 0.10914,-5.2e-4 0.198437,-0.15877 0.198437,-0.35169 0,-0.19291 0.275565,-0.60963 0.612365,-0.92604 0.541714,-0.50891 0.90803,-0.57529 3.175001,-0.57529 1.991912,0 2.562635,0.0806 2.562635,0.36204 0,0.39817 -1.900927,0.76248 -2.592925,0.49693 -0.344592,-0.13223 -0.328621,-0.19006 0.09873,-0.35747 0.337986,-0.1324 0.06393,-0.20283 -0.813095,-0.20894 -1.32278,-0.009 -2.460582,0.39962 -2.499312,0.89807 -0.01131,0.14552 -0.09049,0.48493 -0.175969,0.75424 -0.08548,0.26931 -0.01747,0.62649 0.151132,0.79375 0.231791,0.22994 0.266003,0.17505 0.140299,-0.22508 -0.131316,-0.41799 -0.08895,-0.40033 0.201653,0.0841 0.329283,0.54886 0.404279,0.56938 0.714565,0.19551 0.314275,-0.37868 0.382337,-0.37417 0.728335,0.0482 0.209915,0.25628 0.294907,0.29873 0.188871,0.0944 -0.131149,-0.25279 -0.08935,-0.30769 0.130708,-0.17168 0.177926,0.10996 0.253128,0.38333 0.167115,0.60747 -0.129269,0.33687 -0.08702,0.34997 0.243633,0.0755 0.22001,-0.18259 0.335879,-0.43576 0.257487,-0.56261 -0.234296,-0.37909 1.5611,0.0641 2.128173,0.52534 0.492582,0.40065 0.502395,0.39805 0.160734,-0.0427 -0.20013,-0.25818 -0.278445,-0.55485 -0.174033,-0.65926 0.104412,-0.10441 0.305888,0.0175 0.447726,0.27098 0.316695,0.5659 0.851339,0.59241 1.289925,0.0639 0.331358,-0.39926 0.931046,-0.56867 0.702462,-0.19844 -0.06738,0.10914 0.181965,0.21675 0.554111,0.23912 0.487841,0.0293 0.573034,-0.0249 0.305339,-0.19438 -0.280605,-0.17766 -0.225889,-0.23606 0.224025,-0.23912 0.327422,-0.002 0.595313,0.11426 0.595313,0.25887 0,0.2889 0.735517,0.23754 1.256771,-0.0878 0.181901,-0.11351 0.330729,-0.10582 0.330729,0.0171 0,0.44256 1.062202,0.21235 1.213041,-0.2629 0.121913,-0.38412 0.232545,-0.42153 0.526088,-0.17791 0.204441,0.16967 0.307307,0.4127 0.228591,0.54007 -0.07872,0.12736 0.01821,0.16966 0.215384,0.094 0.622051,-0.2387 5.489813,-0.28119 5.489813,-0.0479 0,0.12252 0.116602,0.15071 0.259115,0.0626 0.142514,-0.0881 0.514843,-0.0233 0.827398,0.14399 0.43578,0.23323 0.615231,0.22818 0.769637,-0.0217 0.110744,-0.17919 0.333727,-0.24398 0.49552,-0.14399 0.16179,0.1 0.29795,0.0259 0.302577,-0.16454 0.0055,-0.22454 0.136099,-0.17794 0.371475,0.13251 0.199684,0.26337 0.433361,0.36511 0.519282,0.22608 0.08592,-0.13902 0.811726,-0.19445 1.612897,-0.12317 1.10531,0.0983 1.45871,0.0438 1.46509,-0.22608 0.005,-0.22997 0.14572,-0.17416 0.39688,0.15791 0.21365,0.28247 0.38846,0.37177 0.38846,0.19843 0,-0.17333 0.15584,-0.31515 0.34631,-0.31515 0.72315,0 1.31267,-0.6809 1.11868,-1.29209 -0.21567,-0.67954 -1.41313,-1.24685 -1.8049,-0.85508 -0.13955,0.13955 -0.41782,0.19077 -0.61837,0.11381 -0.20055,-0.077 -0.36464,-0.028 -0.36464,0.10887 0,0.13684 -0.16724,0.2488 -0.37165,0.2488 -0.2044,0 -0.31073,-0.15875 -0.23627,-0.35278 0.0745,-0.19403 0.004,-0.35278 -0.15752,-0.35278 -0.16109,0 -0.29471,0.14883 -0.29694,0.33073 -0.003,0.22116 -0.09037,0.19924 -0.264582,-0.0661 -0.206801,-0.31502 -0.305818,-0.32682 -0.480123,-0.0572 -0.120846,0.18694 -0.418288,0.26344 -0.661459,0.17013 -0.278344,-0.10681 -0.443367,-0.0367 -0.445918,0.18947 -0.0031,0.27919 -0.06648,0.27077 -0.284726,-0.0378 -0.206422,-0.29188 -0.315574,-0.3112 -0.412588,-0.073 -0.09957,0.24446 -0.284052,0.22419 -0.752327,-0.0826 -0.655353,-0.42941 -1.461244,-0.41884 -1.779381,0.0233 -0.12544,0.17434 -0.351656,0.16472 -0.663286,-0.0282 -0.310453,-0.19221 -1.199459,-0.23125 -2.587761,-0.11363 -1.163161,0.0985 -2.17437,0.11124 -2.24713,0.0282 -0.201788,-0.23024 -4.054398,-0.16577 -4.438227,0.0743 -0.472773,0.29566 -1.870602,-0.0544 -1.811985,-0.45381 0.02665,-0.18156 0.298397,-0.5984 0.603888,-0.9263 l 0.555437,-0.5962 10.416798,0.0543 c 5.72924,0.0299 10.92281,0.0557 11.54127,0.0573 1.23444,0.003 1.35786,0.14722 0.66146,0.77093 -0.25466,0.22808 -1.37901,1.33167 -2.49856,2.45242 -1.11955,1.12075 -2.1604,1.96055 -2.31301,1.86624 -0.15261,-0.0943 -0.4764,-0.0602 -0.71953,0.0759 -0.39289,0.21987 -0.37841,0.2676 0.13019,0.42902 0.31475,0.0999 0.57227,0.28888 0.57227,0.41997 0,0.13856 -6.285795,0.23938 -15.015106,0.24083 -13.300732,0.002 -14.956465,-0.0421 -14.501514,-0.38845 z M 100.08745,130.84 c 6e-5,-0.21647 -25.667393,-0.15159 -25.884411,0.0654 -0.07316,0.0731 5.720896,0.13301 12.87567,0.13301 7.154775,0 13.008711,-0.0893 13.008741,-0.19844 z m -9.067551,-0.75516 c -0.08792,-0.0879 -0.316122,-0.0973 -0.507118,-0.0209 -0.211067,0.0845 -0.148372,0.14716 0.159852,0.15985 0.278915,0.0115 0.435184,-0.051 0.347266,-0.13896 z m 1.058333,0 c -0.08792,-0.0879 -0.316122,-0.0973 -0.507118,-0.0209 -0.211067,0.0845 -0.148372,0.14716 0.159853,0.15985 0.278914,0.0115 0.435184,-0.051 0.347265,-0.13896 z m 1.129991,-9.2e-4 c 0,-0.21898 -0.513749,-0.34281 -0.631537,-0.15223 -0.07641,0.12364 0.03442,0.22481 0.246301,0.22481 0.21188,0 0.385236,-0.0327 0.385236,-0.0726 z m -6.085417,-3.82142 c 0,-0.16427 -0.431677,-0.23779 -1.055026,-0.1797 -1.513884,0.1411 -1.638187,0.45772 -0.179696,0.45772 0.686555,0 1.234722,-0.12343 1.234722,-0.27802 z"
         id="path3075" />
      <path
         style="fill:#275073;stroke-width:0.264583"
         d="m 72.306139,131.20313 c 0,-0.0549 0.20836,-0.2633 0.463021,-0.46302 0.419644,-0.32911 0.429002,-0.31975 0.0999,0.0999 -0.345644,0.44073 -0.562916,0.58089 -0.562916,0.36313 z m 2.105609,-2.08292 c 1.096425,-1.16818 1.333975,-1.37824 1.333975,-1.17957 0,0.0425 -0.565547,0.60801 -1.256771,1.25677 l -1.256771,1.17957 z m 11.603116,-0.11459 c 0.190996,-0.0764 0.419199,-0.067 0.507118,0.0209 0.08792,0.0879 -0.06835,0.15046 -0.347266,0.13897 -0.308224,-0.0127 -0.370919,-0.0754 -0.159852,-0.15985 z m 6.399609,-0.0838 c 0,-0.14552 0.119063,-0.26458 0.264584,-0.26458 0.145521,0 0.264583,0.11906 0.264583,0.26458 0,0.14552 -0.119062,0.26459 -0.264583,0.26459 -0.145521,0 -0.264584,-0.11907 -0.264584,-0.26459 z m -13.49375,-0.24897 c 0,-0.13693 0.119062,-0.32255 0.264583,-0.41249 0.145521,-0.0899 0.264583,0.0221 0.264583,0.24897 0,0.22687 -0.119062,0.41249 -0.264583,0.41249 -0.145521,0 -0.264583,-0.11203 -0.264583,-0.24897 z m 1.079221,-0.43453 c 0.01269,-0.30823 0.07539,-0.37092 0.159853,-0.15986 0.07643,0.191 0.06703,0.4192 -0.02089,0.50712 -0.08792,0.0879 -0.150453,-0.0684 -0.138965,-0.34726 z m -2.877382,-1.89618 c 0.190459,-0.22868 1.194335,-0.33073 3.253369,-0.33073 2.324257,0 3.050214,-0.0871 3.307292,-0.39688 0.181157,-0.21828 0.509449,-0.39687 0.729536,-0.39687 0.25195,0 0.120437,0.22049 -0.355076,0.59531 -0.66249,0.5222 -1.151606,0.61156 -3.982905,0.7276 -2.563822,0.10509 -3.171016,0.0643 -2.952216,-0.19843 z"
         id="path3073" />
      <path
         style="fill:#065488;stroke-width:0.264583"
         d="m 71.988316,131.95534 c -0.138504,-0.13851 4.997498,-5.41482 5.270825,-5.41482 0.07638,0 -0.02453,0.20089 -0.224251,0.44642 -0.32377,0.39803 -0.305775,0.42143 0.166041,0.21594 0.291042,-0.12676 1.18401,-0.26076 1.984375,-0.29777 0.800365,-0.037 1.238287,-0.005 0.973161,0.0717 -0.451772,0.13028 -0.45363,0.15979 -0.02958,0.46986 0.375563,0.27462 0.165182,0.31506 -1.237744,0.2379 -0.929618,-0.0511 -1.850061,-0.15135 -2.045429,-0.22272 -0.20205,-0.0738 -0.415005,0.0989 -0.493879,0.4005 -0.07627,0.29164 -0.214077,0.53068 -0.306245,0.53119 -0.33817,0.002 -2.416537,1.92718 -2.416537,2.23854 0,0.17678 -0.327422,0.48936 -0.727604,0.69462 -0.652381,0.33462 -0.166849,0.38066 4.696354,0.44536 2.983177,0.0397 9.669142,0.0397 14.8577,0 5.188558,-0.0397 9.378487,0.0171 9.310947,0.12628 -0.13766,0.22246 -29.556365,0.27877 -29.778137,0.057 z m 29.708244,-0.77301 c -0.51345,-0.27479 -0.54348,-0.35468 -0.18501,-0.49224 0.23536,-0.0903 0.58247,-0.10491 0.77135,-0.0324 0.18889,0.0725 0.5898,-0.13962 0.89092,-0.47133 0.76557,-0.84334 0.57391,-2.58748 -0.28434,-2.58748 -0.31877,0 -0.7037,0.12411 -0.85539,0.27579 -0.19134,0.19134 -0.38984,0.13566 -0.64823,-0.18183 -0.32658,-0.40128 -0.31939,-0.43778 0.0584,-0.29647 0.23693,0.0886 0.54497,0.047 0.68452,-0.0926 0.68483,-0.68483 2.26898,0.82317 1.76672,1.68178 -0.19378,0.33127 0.29951,-0.0564 1.85813,-1.46034 1.47198,-1.32589 1.74214,-1.60407 1.74214,-1.79385 0,-0.10308 -4.60991,-0.20748 -10.244258,-0.232 -5.634346,-0.0245 -10.297627,-0.0979 -10.362849,-0.16317 -0.06522,-0.0652 4.723291,-0.11858 10.641138,-0.11858 5.917849,0 10.759719,0.0766 10.759719,0.17022 0,0.0936 -1.34549,1.50949 -2.98999,3.14637 -2.81131,2.79832 -3.02661,2.95656 -3.60292,2.64813 z m -27.493521,-0.2769 c 0.217018,-0.21702 25.884471,-0.2819 25.884411,-0.0654 -3e-5,0.10914 -5.853966,0.19844 -13.008741,0.19844 -7.154774,0 -12.948826,-0.0599 -12.87567,-0.13301 z m 4.888882,-1.06359 c 0.125303,-0.32654 0.08631,-0.41776 -0.123205,-0.28827 -0.200261,0.12377 -0.251894,0.0471 -0.148947,-0.22118 0.197018,-0.51342 0.528203,-0.52867 0.718378,-0.0331 0.07968,0.20765 -0.02937,0.52214 -0.242333,0.69889 -0.321097,0.26648 -0.355908,0.23979 -0.203893,-0.15635 z m 2.595468,0.11973 c -0.09624,-0.15572 -0.421279,-0.37424 -0.722309,-0.4856 -0.304643,-0.11269 -0.427008,-0.27683 -0.275969,-0.37018 0.149247,-0.0922 0.547545,0.12628 0.885106,0.4856 0.337561,0.35931 0.540488,0.6533 0.45095,0.6533 -0.08954,0 -0.241539,-0.12741 -0.337778,-0.28312 z m 8.825392,0.10238 c 0.190996,-0.0764 0.419199,-0.067 0.507118,0.0209 0.08792,0.0879 -0.06835,0.15045 -0.347266,0.13896 -0.308224,-0.0127 -0.370919,-0.0754 -0.159852,-0.15985 z m 1.058333,0 c 0.190996,-0.0764 0.419199,-0.067 0.507118,0.0209 0.08792,0.0879 -0.06835,0.15045 -0.347265,0.13896 -0.308225,-0.0127 -0.37092,-0.0754 -0.159853,-0.15985 z m 1.005572,-0.13226 c 0.07641,-0.12364 0.249771,-0.1563 0.385236,-0.0726 0.346176,0.21395 0.307197,0.29739 -0.138935,0.29739 -0.21188,0 -0.322715,-0.10117 -0.246301,-0.22481 z m -10.37646,-0.26113 c -0.127882,-0.20692 -0.04815,-0.25461 0.240495,-0.14385 0.237493,0.0911 0.502176,0.0518 0.588185,-0.0873 0.08601,-0.13916 0.282994,-0.25302 0.437745,-0.25302 0.177427,0 0.159691,0.14661 -0.04801,0.39687 -0.393968,0.4747 -0.954188,0.51486 -1.218415,0.0873 z m 13.850173,0.0226 c -0.255814,-0.14897 -0.583236,-0.19786 -0.727604,-0.10863 -0.144369,0.0892 -0.262488,-0.0234 -0.262488,-0.25027 0,-0.44953 0.408176,-0.55772 0.646894,-0.17147 0.211354,0.34198 0.938214,0.18809 1.226348,-0.25964 0.209592,-0.32568 0.279636,-0.32309 0.503957,0.0186 0.374851,0.57102 0.32788,0.79988 -0.128241,0.62485 -0.218281,-0.0838 -0.396875,-0.0205 -0.396875,0.14059 0,0.35927 -0.252277,0.36101 -0.861991,0.006 z m 2.101223,-0.0787 c -0.101325,-0.26404 -0.03204,-0.3544 0.202689,-0.26433 0.196149,0.0753 0.436439,0.008 0.533975,-0.15008 0.09753,-0.15782 0.286342,-0.21957 0.419573,-0.13723 0.133228,0.0823 0.750081,0.25679 1.370781,0.38767 1.10159,0.23227 1.09277,0.23583 -0.36973,0.14902 -0.824045,-0.0489 -1.611908,0.0247 -1.750803,0.1636 -0.160325,0.16033 -0.308748,0.10605 -0.406485,-0.14865 z m 3.961128,-0.0198 c -0.11241,-0.29294 0.009,-0.40714 0.43034,-0.40423 0.32285,0.002 0.46795,0.0929 0.32243,0.20151 -0.14553,0.10861 -0.33918,0.29051 -0.43034,0.40424 -0.0912,0.11372 -0.23625,0.023 -0.32243,-0.20152 z m -24.779527,0.042 c 0,-0.36955 0.631385,-1.50867 0.836219,-1.50867 0.409704,0 0.227382,0.70697 -0.307053,1.19063 -0.291041,0.26339 -0.529166,0.40651 -0.529166,0.31804 z m 6.808935,-0.38419 c 0.162,-0.42238 0.28731,-0.41603 0.740895,0.0376 0.314654,0.31465 0.278289,0.36281 -0.24973,0.33072 -0.376084,-0.0229 -0.568357,-0.16702 -0.491165,-0.36828 z m 1.657732,0.19974 c 0,-0.14297 0.292,-0.23579 0.648888,-0.20625 0.730337,0.0604 0.663037,0.266 -0.12654,0.3865 -0.287291,0.0438 -0.522348,-0.0373 -0.522348,-0.18025 z m 1.754832,-0.058 c 0.07067,-0.11433 0.300048,-0.20788 0.509741,-0.20788 0.209693,0 0.38126,0.0935 0.38126,0.20788 0,0.11434 -0.229383,0.20789 -0.509741,0.20789 -0.280358,0 -0.451925,-0.0935 -0.38126,-0.20789 z m 1.800388,0.0837 c 0.07872,-0.12737 -0.03416,-0.37871 -0.250841,-0.55853 -0.21668,-0.17983 -0.393962,-0.55504 -0.393962,-0.8338 0,-0.45763 -0.168243,-0.49747 -1.73252,-0.41034 -0.952887,0.0531 -1.793351,-0.002 -1.867699,-0.12222 -0.15393,-0.24907 0.123379,-0.28338 2.607911,-0.32273 1.824537,-0.0289 1.885808,0.01 1.791703,1.13211 -0.02911,0.34718 0.08675,0.71756 0.25748,0.82308 0.218472,0.13502 0.182221,0.24103 -0.122391,0.35792 -0.238041,0.0913 -0.368397,0.0619 -0.289681,-0.0655 z m -12.71379,-0.40775 c -0.08037,-0.20945 -0.02213,-0.5964 0.129429,-0.8599 0.228648,-0.39753 0.266199,-0.33279 0.220579,0.38028 -0.06076,0.9497 -0.132105,1.04746 -0.350008,0.47962 z m 14.450237,0.11622 c 0,-0.14552 0.112035,-0.26459 0.248968,-0.26459 0.136933,0 0.322553,0.11907 0.41249,0.26459 0.08994,0.14552 -0.0221,0.26458 -0.248968,0.26458 -0.22687,0 -0.41249,-0.11906 -0.41249,-0.26458 z m 1.273307,0.0838 c 0.190996,-0.0764 0.419199,-0.067 0.507118,0.0209 0.08792,0.0879 -0.06835,0.15045 -0.347265,0.13896 -0.308225,-0.0127 -0.37092,-0.0754 -0.159853,-0.15985 z m 1.107943,-0.0838 c 0,-0.14552 0.238125,-0.26459 0.529166,-0.26459 0.291042,0 0.529167,0.11907 0.529167,0.26459 0,0.14552 -0.238125,0.26458 -0.529167,0.26458 -0.291041,0 -0.529166,-0.11906 -0.529166,-0.26458 z m -3.175,-0.76576 c 0,-0.13013 0.297572,-0.21943 0.661271,-0.19844 0.862,0.0497 0.862166,0.43503 1.87e-4,0.43503 -0.363802,0 -0.661458,-0.10647 -0.661458,-0.23659 z m 2.116666,-0.028 c 0,-0.14552 0.119063,-0.26459 0.264584,-0.26459 0.145521,0 0.264583,0.11907 0.264583,0.26459 0,0.14552 -0.119062,0.26458 -0.264583,0.26458 -0.145521,0 -0.264584,-0.11906 -0.264584,-0.26458 z m 8.202087,-0.22049 c 0,-0.31529 -0.11907,-0.57326 -0.26459,-0.57326 -0.14552,0 -0.26458,-0.11907 -0.26458,-0.26459 0,-0.14552 0.1168,-0.26458 0.25954,-0.26458 0.30647,0 0.67183,1.27349 0.4337,1.51163 -0.0902,0.0902 -0.16407,-0.0939 -0.16407,-0.4092 z m -16.40417,-0.30868 c 0,-0.14552 0.126089,-0.26458 0.280198,-0.26458 0.154109,0 0.206614,0.11906 0.116677,0.26458 -0.08994,0.14552 -0.216026,0.26458 -0.280199,0.26458 -0.06417,0 -0.116676,-0.11906 -0.116676,-0.26458 z m 12.7,0.035 c 0,-0.12628 -1.507383,-0.2446 -3.349739,-0.26293 -3.441695,-0.0342 -4.84608,-0.26871 -2.052171,-0.34262 0.860999,-0.0228 1.888896,-0.0645 2.284217,-0.0927 0.395321,-0.0282 0.656185,0.0499 0.579698,0.1737 -0.07649,0.12376 0.04655,0.22502 0.273422,0.22502 0.226869,0 0.41249,-0.10721 0.41249,-0.23823 0,-0.4012 1.571696,-0.15555 2.047211,0.31996 0.281667,0.28167 0.328403,0.44743 0.126153,0.44743 -0.176704,0 -0.321281,-0.10332 -0.321281,-0.22961 z m 1.643214,-0.19395 c -0.187638,-0.2036 -0.22443,-0.37019 -0.08176,-0.37019 0.274754,0 0.672497,0.5033 0.515562,0.65238 -0.05095,0.0484 -0.246163,-0.0786 -0.433802,-0.28219 z m -16.327589,-0.12293 c -0.968234,-0.12012 -1.092373,-0.17527 -0.463021,-0.20569 0.538717,-0.026 0.859896,-0.17923 0.859896,-0.41013 0,-0.20272 0.166848,-0.4326 0.370775,-0.51085 0.239428,-0.0919 0.346546,0.0153 0.30238,0.30242 -0.03762,0.24459 0.115054,0.51346 0.339267,0.5975 0.723378,0.27113 -0.04938,0.39546 -1.409297,0.22675 z m 17.065625,-0.24726 c 0,-0.14552 0.119063,-0.26458 0.264584,-0.26458 0.145521,0 0.264583,0.11906 0.264583,0.26458 0,0.14552 -0.119062,0.26459 -0.264583,0.26459 -0.145521,0 -0.264584,-0.11907 -0.264584,-0.26459 z m -14.460582,-0.97344 c 0.311098,-0.3111 2.289748,-0.39607 2.289748,-0.0983 0,0.15459 -0.548167,0.27802 -1.234722,0.27802 -0.679097,0 -1.153859,-0.0809 -1.055026,-0.17969 z m 0.239228,-1.06102 c 0.254661,-0.0665 0.67138,-0.0665 0.926041,0 0.254662,0.0666 0.0463,0.121 -0.463021,0.121 -0.509323,0 -0.717682,-0.0545 -0.46302,-0.121 z"
         id="path3071" />
    </g>
    <rect
       style="fill:#005693;fill-opacity:1;stroke-width:0.264583"
       id="rect3150"
       width="25.770206"
       height="2.8877699"
       x="75.129166"
       y="143.56355" />
  </g>
</svg>
